<?xml version="1.0" standalone="no"?>
<!DOCTYPE svg PUBLIC "-//W3C//DTD SVG 1.1//EN" "http://www.w3.org/Graphics/SVG/1.1/DTD/svg11.dtd" >
<svg xmlns="http://www.w3.org/2000/svg">
<metadata></metadata>
<defs>
<font id="borisblackbloxxregular" horiz-adv-x="1404" >
<font-face units-per-em="2048" ascent="1638" descent="-410" />
<missing-glyph horiz-adv-x="544" />
<glyph horiz-adv-x="2048" />
<glyph horiz-adv-x="2048" />
<glyph horiz-adv-x="682" />
<glyph horiz-adv-x="1130" d="M47 1733q27 -227 178 -338q152 -109 338 -109q197 0 342 107q150 109 178 340q4 25 -13 41t-46 16h-201q-20 0 -36.5 -12.5t-20.5 -30.5q-18 -90 -71.5 -120t-131.5 -30q-74 0 -126 30t-70 118q-4 18 -21.5 31.5t-38.5 13.5h-201q-27 0 -45 -16.5t-14 -40.5z" />
<glyph horiz-adv-x="456" d="M45 1294q0 -20 15.5 -34.5t35.5 -14.5h266q20 0 35 14.5t15 34.5v262q0 20 -15.5 35t-36.5 15h-264q-23 0 -37 -14.5t-14 -35.5v-262z" />
<glyph horiz-adv-x="790" d="M45 1704q0 -145 102.5 -247.5t247.5 -102.5q139 0 246 102v-2q104 104 104 250q0 145 -104 248v-2q-105 104 -246 104q-143 0 -248 -104q-102 -102 -102 -246zM299 1704q0 41 27.5 68.5t68.5 27.5t69 -27.5t28 -68.5t-28 -68.5t-69 -27.5t-68.5 27.5t-27.5 68.5z" />
<glyph unicode="&#xa;" horiz-adv-x="1386" d="M54.5 1311.5q17.5 -25.5 54.5 -25.5h256q10 0 25.5 7t21.5 14l381 397q27 29 10 57.5t-58 28.5h-383q-14 0 -30.5 -8t-24.5 -19l-252 -397q-18 -29 -0.5 -54.5zM591 1311.5q17 -25.5 54 -25.5h256q10 0 25.5 7t21.5 14l377 397q27 29 11.5 57.5t-56.5 28.5h-383 q-12 0 -29.5 -8t-23.5 -19l-252 -397q-18 -29 -1 -54.5z" />
<glyph horiz-adv-x="970" d="M49 -537q0 -141 119 -231q53 -43 116.5 -63.5t135.5 -20.5q135 0 260 56.5t229 133.5q16 14 19.5 36t-8.5 40l-66 107q-14 23 -38.5 28t-47.5 -12q-70 -53 -137.5 -88t-108.5 -35q-39 0 -66.5 24.5t-27.5 72.5q0 88 100 165q57 47 127 84t156 66q16 4 27.5 20.5 t11.5 32.5v37q0 29 -22.5 45t-51.5 12q-360 -68 -534 -172q-193 -119 -193 -338z" />
<glyph horiz-adv-x="1153" d="M53.5 1764.5q-16.5 -25.5 3.5 -54.5l277 -397q6 -10 22.5 -18.5t28.5 -8.5h385q12 0 27.5 8.5t23.5 18.5l275 397q20 29 3.5 54.5t-55.5 25.5h-268q-10 0 -26.5 -6t-22.5 -15l-149 -184l-154 184q-4 8 -21.5 14.5t-27.5 6.5h-266q-39 0 -55.5 -25.5z" />
<glyph unicode="&#xd;" horiz-adv-x="481" d="M45 61q0 -27 15.5 -44t37.5 -17h289q20 0 34.5 17.5t14.5 43.5v1053q0 27 -15 44.5t-36 17.5h-289q-23 0 -37 -17.5t-14 -44.5v-1053z" />
<glyph horiz-adv-x="1820" d="M51 11q17 -36 60 -36h274q10 0 26.5 7.5t22.5 13.5l1323 1536q29 33 12.5 68.5t-59.5 35.5h-276q-8 0 -24.5 -7t-23.5 -13l-1323 -1536q-29 -33 -12 -69z" />
<glyph horiz-adv-x="1576" d="M45 901q0 -27 19.5 -44t44.5 -17h135v-779q0 -25 17.5 -43t43.5 -18h359q25 0 43 18.5t18 42.5v779h180q25 0 43.5 17t18.5 44v197q0 25 -19.5 43t-44.5 18h-180v47q0 27 12.5 37t28.5 10q47 0 78.5 -8t52.5 -14q4 0 10 -1l6 -1q29 0 47.5 18.5t18.5 44.5v221 q0 16 -13.5 35t-29.5 23q-86 35 -258 35q-197 0 -315.5 -92.5t-118.5 -268.5v-86h-136q-25 0 -43 -18.5t-18 -42.5v-197zM1020 61q0 -25 19.5 -43t45.5 -18h359q25 0 43 18.5t18 42.5v1086q0 25 -19.5 43t-43.5 18h-359q-27 0 -45 -18.5t-18 -42.5v-1086zM1020 1411 q0 -90 65.5 -142t178.5 -52t177 52t64 142t-65.5 142.5t-177.5 52.5q-113 0 -177.5 -52.5t-64.5 -142.5z" />
<glyph horiz-adv-x="1562" d="M45 901q0 -27 18.5 -44t42.5 -17h136v-779q0 -25 17 -43t44 -18h359q25 0 43 18.5t18 42.5v779h180q25 0 43.5 17t18.5 44v197q0 25 -18.5 43t-43.5 18h-180v47q0 27 12.5 37t30.5 10q41 0 76 -8t55 -14q2 0 7 -1t7 -1q27 0 45.5 18.5t18.5 44.5v221q0 16 -12.5 35 t-28.5 23q-41 16 -103.5 25.5t-148.5 9.5q-205 0 -322.5 -91.5t-117.5 -269.5v-86h-136q-25 0 -43 -18.5t-18 -42.5v-197zM1022 61q0 -25 18.5 -43t44.5 -18h359q25 0 43 18.5t18 42.5v1483q0 25 -18.5 43.5t-42.5 18.5h-359q-27 0 -45 -18.5t-18 -43.5v-1483z" />
<glyph horiz-adv-x="1689" d="M45 512q0 -35 25.5 -53.5t58.5 -5.5l96 39v-431q0 -25 18.5 -43t45.5 -18h1292q27 0 45.5 18.5t18.5 42.5v353q0 27 -18.5 44t-45.5 17h-782v244l297 121q16 4 28.5 22.5t12.5 34.5v238q0 35 -27 53t-59 6l-252 -100v450q0 25 -17.5 43.5t-44.5 18.5h-448 q-27 0 -45.5 -18.5t-18.5 -43.5v-680l-141 -55q-16 -6 -27.5 -24.5t-11.5 -34.5v-238z" />
<glyph horiz-adv-x="894" d="M45 596q0 -37 26.5 -55.5t59.5 0.5l92 51v-531q0 -25 17.5 -43t40.5 -18h333q23 0 40.5 18.5t17.5 42.5v773l145 77q12 6 22.5 23.5t10.5 32.5v215q0 37 -27.5 55t-60.5 0l-92 -51v358q0 25 -17.5 43.5t-40.5 18.5h-333q-23 0 -40.5 -18.5t-17.5 -43.5v-600l-143 -80 q-12 -6 -22.5 -22.5t-10.5 -30.5v-215z" />
<glyph horiz-adv-x="1699" d="M45 61q0 -25 18.5 -43t45.5 -18h1484q25 0 43.5 18.5t18.5 42.5v334q0 25 -18.5 43.5t-43.5 18.5h-743l764 747q6 6 12 22.5t6 24.5v293q0 25 -18.5 43.5t-42.5 18.5h-1436q-25 0 -43 -18.5t-18 -43.5v-299q0 -27 18.5 -45t42.5 -18h703l-775 -766q-4 -6 -11 -21.5 t-7 -21.5v-312zM344 2124.5q-16 -27.5 4 -56.5l277 -397q6 -10 22.5 -18t28.5 -8h385q12 0 27.5 8t23.5 18l274 397q20 29 4 54.5t-55 25.5h-268q-10 0 -26.5 -6t-22.5 -14l-150 -184l-22 28q-21 29 -48.5 64t-52 63.5t-30.5 28.5l-316 20q-39 4 -55 -23.5z" />
<glyph horiz-adv-x="1196" d="M45 61q0 -27 17.5 -44t41.5 -17h951q25 0 43 17.5t18 43.5v279q0 25 -18.5 43t-42.5 18h-363l402 447v266q0 27 -17.5 44.5t-42.5 17.5h-901q-25 0 -42 -17.5t-17 -44.5v-278q0 -25 17.5 -43.5t41.5 -18.5h313l-401 -459v-254zM96.5 1703q-16.5 -26 3.5 -54l277 -398 q8 -10 23.5 -18t27.5 -8h385q12 0 27.5 8t23.5 18l275 398q23 29 5 54.5t-57 25.5h-268q-10 0 -26.5 -6.5t-22.5 -14.5l-149 -184l-154 184q-4 8 -21.5 14.5t-27.5 6.5h-266q-39 0 -55.5 -26z" />
<glyph unicode=" "  horiz-adv-x="544" />
<glyph unicode="&#x09;" horiz-adv-x="544" />
<glyph unicode="&#xa0;" horiz-adv-x="544" />
<glyph unicode="!" horiz-adv-x="466" d="M45 1139l64 -568q4 -23 18 -38t33 -15h149q18 0 31.5 15.5t17.5 37.5l64 572v401q0 25 -14.5 43.5t-34.5 18.5h-277q-23 0 -37 -18.5t-14 -43.5v-405zM57 61q0 -25 14.5 -43t34.5 -18h256q20 0 35 18.5t15 42.5v322q0 27 -14.5 45t-35.5 18h-256q-20 0 -34.5 -18 t-14.5 -45v-322z" />
<glyph unicode="&#x22;" horiz-adv-x="675" d="M45 844q0 -23 12.5 -39.5t30.5 -16.5h143q16 0 29.5 16.5t13.5 39.5v542q0 23 -13 40.5t-30 17.5h-143q-18 0 -30.5 -17.5t-12.5 -40.5v-542zM401 844q0 -23 12.5 -39.5t30.5 -16.5h144q16 0 29.5 16.5t13.5 39.5v542q0 23 -13.5 40.5t-29.5 17.5h-144q-18 0 -30.5 -17.5 t-12.5 -40.5v-542z" />
<glyph unicode="#" horiz-adv-x="1472" d="M45 455q0 -25 18.5 -43.5t45.5 -18.5h137l-39 -323q-4 -29 15.5 -49.5t47.5 -20.5h250q23 0 40.5 16.5t21.5 38.5l39 338h135l-41 -323q-4 -29 15.5 -49.5t47.5 -20.5h252q23 0 40 16.5t22 38.5l38 338h170q27 0 45.5 18.5t18.5 43.5v239q0 25 -19.5 43.5t-46.5 18.5 h-127l13 98h180q27 0 45 18.5t18 42.5v240q0 25 -19 43.5t-46 18.5h-137l41 319q4 29 -15.5 49.5t-48.5 20.5h-250q-23 0 -40 -16.5t-21 -39.5l-41 -333h-135l43 319q4 29 -16.5 49.5t-49.5 20.5h-250q-23 0 -40 -16.5t-21 -39.5l-41 -333h-170q-27 0 -45.5 -18.5 t-18.5 -43.5v-240q0 -25 19.5 -43t46.5 -18h127l-12 -98h-178q-29 0 -46.5 -18.5t-17.5 -43.5v-239zM662 756l12 98h135l-12 -98h-135z" />
<glyph unicode="$" horiz-adv-x="1439" d="M45 1122q0 -219 154 -338q53 -43 145 -81.5t221 -71.5v-223q-33 4 -65.5 11t-67.5 17q-78 23 -151.5 50.5t-143.5 62.5q-35 16 -63.5 -4.5t-24.5 -59.5l27 -323q2 -14 12 -30.5t23 -22.5q29 -12 89 -30t152 -38q57 -12 109.5 -20.5t103.5 -12.5v-131q0 -27 17.5 -45 t44.5 -18h170q27 0 44 18t17 45v133q209 25 344 117q193 135 193 393q0 201 -138 330q-115 106 -399 172v211q14 -4 30.5 -8t33.5 -8q86 -23 158.5 -48.5t133.5 -54.5q35 -16 64 3.5t25 60.5l-25 303q-2 12 -13.5 28.5t-23.5 22.5q-82 39 -235 70q-39 8 -76 13t-72 9v102 q0 27 -17.5 45.5t-43.5 18.5h-170q-27 0 -44.5 -18.5t-17.5 -45.5v-100q-104 -14 -187 -42t-149 -75q-184 -133 -184 -387zM463 1176q0 39 33 57q23 14 69 20v-159q-27 6 -47 16h2q-57 25 -57 66zM858 408v155q29 -8 49.5 -16.5t30.5 -14.5q33 -20 33 -45q0 -39 -49 -59h2 q-14 -6 -30.5 -11t-35.5 -9z" />
<glyph unicode="%" horiz-adv-x="2555" d="M45 1167q0 -113 38 -203t108.5 -152t172 -96t226.5 -34q238 0 389 129q154 135 154 356q0 113 -39 202t-110 151.5t-172 95.5t-226 33q-240 0 -389 -127q-152 -131 -152 -355zM353.5 -174q17.5 -35 60.5 -35h235q10 0 26.5 8t20.5 17l1479 1730q29 35 12.5 69t-61.5 34 l-238 2q-10 0 -25.5 -7.5t-21.5 -15.5l-1476 -1732q-29 -35 -11.5 -70zM449 1165q0 129 29.5 188.5t115.5 59.5q74 0 104.5 -61.5t30.5 -190.5q0 -123 -31.5 -183t-111.5 -60q-78 0 -107.5 60t-29.5 187zM1423 283q0 -225 151.5 -354.5t391.5 -129.5q123 0 220.5 34 t170.5 97q154 131 154 353q0 117 -39 202.5t-115 151.5q-151 129 -393 129q-238 0 -389 -129q-152 -133 -152 -354zM1827 281q0 129 29.5 189t113.5 60q78 0 107.5 -62t29.5 -192q0 -123 -30.5 -181t-112.5 -58q-78 0 -107.5 58.5t-29.5 185.5z" />
<glyph unicode="&#x26;" horiz-adv-x="2019" d="M45 446q0 -203 164 -337q162 -133 475 -134q117 0 223.5 22.5t204.5 63.5q29 12 61.5 28.5t69.5 39.5l100 -109q6 -6 21.5 -13t24.5 -7h520q20 0 36.5 10t22.5 25.5t3 34t-17 34.5l-301 326q29 31 60.5 64.5t60.5 70.5q61 74 102 145.5t70 143.5l-60 86h-381 q-14 0 -31.5 -11t-25.5 -22q-51 -90 -100 -147l-148 160q20 18 40 37.5t38 41.5q102 127 102 248q0 193 -168 295q-158 94 -374 94q-117 0 -213.5 -24.5t-164 -73.5t-104.5 -122t-37 -169q0 -135 97 -254q6 -6 9 -12t9 -12q-106 -51 -177 -99.5t-107 -99.5 q-104 -147 -105 -324zM571 477q0 55 58 113h-2q25 20 53.5 40.5t64.5 39.5l209 -230q-22 -14 -47 -24h2q-113 -53 -194 -54q-57 0 -100.5 32t-43.5 83zM786 1272q0 20 18.5 30.5t45.5 10.5q29 0 47 -12.5t18 -38.5q0 -66 -36 -99q-12 -12 -19 -16q-74 68 -74 125z" />
<glyph unicode="'" horiz-adv-x="319" d="M45 844q0 -23 12.5 -39.5t30.5 -16.5h143q16 0 29.5 16.5t13.5 39.5v542q0 23 -13 40.5t-30 17.5h-143q-18 0 -30.5 -17.5t-12.5 -40.5v-542z" />
<glyph unicode="(" horiz-adv-x="710" d="M45 696q0 -356 135 -616q139 -272 418 -336q27 -6 47.5 11.5t20.5 49.5v244q0 23 -13.5 40t-34.5 22q-109 25 -157 168q-29 86 -41 190t-12 227h2q0 123 12 227.5t41 190.5q45 143 158 170q16 4 30.5 21.5t14.5 40.5v243q0 33 -20.5 50.5t-49.5 11.5 q-137 -33 -242.5 -117t-175.5 -221q-133 -260 -133 -617z" />
<glyph unicode=")" horiz-adv-x="708" d="M45 49v-244q0 -33 19.5 -50t48.5 -11q276 63 415 334h-2q137 262 138 618q0 356 -138 619l2 -2q-137 272 -415 338q-29 6 -48.5 -11.5t-19.5 -50.5v-243q0 -23 13.5 -40.5t31.5 -21.5q109 -25 156 -170q55 -172 55 -418t-55 -417q-45 -143 -156 -168q-18 -4 -31.5 -21.5 t-13.5 -40.5z" />
<glyph unicode="*" horiz-adv-x="1224" d="M45 852q0 -29 21.5 -46.5t50.5 -12.5l227 41q-4 -8 -10 -13.5t-12 -13.5q-33 -37 -50.5 -58.5t-30 -36t-22.5 -26.5t-24 -31q-18 -23 -13.5 -50t29.5 -42l240 -137q27 -16 51 -6t35 39l75 215l78 -215q10 -29 35 -39t51 6l240 137q25 14 30 42t-14 50q-16 18 -25.5 30.5 t-21.5 27t-29.5 36t-50.5 58.5q-8 8 -14 13t-10 14l229 -41q29 -4 49.5 13t20.5 46v274q0 29 -20.5 45.5t-49.5 12.5l-227 -41l149 178q20 23 15 49.5t-31 42.5l-240 137q-27 16 -51.5 6t-34.5 -38l-78 -215l-75 215q-10 29 -35 39t-51 -7l-240 -137q-27 -16 -32 -43t16 -49 l149 -178l-227 41q-29 4 -50.5 -12.5t-21.5 -45.5v-274z" />
<glyph unicode="+" horiz-adv-x="1269" d="M45 733h2v-282q0 -25 18.5 -43.5t43.5 -18.5h327v-328q0 -27 17.5 -44t42.5 -17h282q27 0 44.5 17.5t17.5 43.5v328h325q25 0 42.5 18.5t17.5 43.5v282q0 25 -18.5 43.5t-43.5 18.5h-325v321q0 27 -17.5 44.5t-44.5 17.5h-282q-25 0 -42.5 -17.5t-17.5 -44.5v-321h-328 q-25 0 -43 -18.5t-18 -43.5z" />
<glyph unicode="," horiz-adv-x="438" d="M45 61q0 -23 14.5 -39t34.5 -16h53l-61 -178q-10 -29 4 -52.5t43 -23.5h125q12 0 26.5 10.5t18.5 24.5l90 260v303q0 23 -14 39.5t-35 16.5h-250q-20 0 -34.5 -16.5t-14.5 -39.5v-289z" />
<glyph unicode="-" horiz-adv-x="823" d="M45 633q0 -20 17.5 -33.5t39.5 -13.5h619q25 0 41 13t16 34v201q0 18 -16.5 31.5t-40.5 13.5h-619q-23 0 -40 -13.5t-17 -31.5v-201z" />
<glyph unicode="." horiz-adv-x="514" d="M45 51q0 -23 14.5 -37t34.5 -14h250q20 0 34.5 14.5t14.5 36.5v299q0 23 -14 37t-35 14h-250q-20 0 -34.5 -14t-14.5 -37v-299z" />
<glyph unicode="/" horiz-adv-x="1253" d="M53 66q-16 -35 0.5 -63t52.5 -28h279q14 0 30.5 10.5t22.5 24.5l762 1536q16 35 0 62.5t-53 27.5h-281q-14 0 -29.5 -10t-23.5 -24z" />
<glyph unicode="0" horiz-adv-x="1462" d="M45 805q0 -211 40 -365.5t118 -255.5q164 -209 528 -209q369 0 529 209v-2q157 201 157 623q0 424 -157 622v-2q-162 211 -529 211t-528 -209q-158 -201 -158 -622zM571 805q0 254 27 340q14 55 133 55q115 0 133 -55q29 -92 29 -340q0 -250 -29 -340q-18 -55 -133 -55 t-133 55q-12 43 -19.5 129t-7.5 211z" />
<glyph unicode="1" horiz-adv-x="892" d="M45 1024q0 -33 22.5 -52.5t51.5 -8.5q70 20 128 42.5t118 57.5v-1002q0 -25 17 -43t40 -18h369q25 0 41 18.5t16 42.5v1483q0 25 -16.5 43.5t-40.5 18.5h-310q-47 -47 -87 -81t-75 -50q-39 -18 -95 -36t-132 -34q-18 -4 -32.5 -20.5t-14.5 -38.5v-322z" />
<glyph unicode="2" horiz-adv-x="1384" d="M45 61q0 -25 18.5 -43t42.5 -18h1172q25 0 43 18.5t18 42.5v330q0 27 -18 45.5t-43 18.5h-420q23 23 46.5 44t47.5 48v-2q41 41 97.5 103.5t128.5 148.5q150 178 149 379q0 219 -172 342q-158 117 -420 116q-195 0 -381 -75q-92 -39 -151.5 -71t-87.5 -61 q-6 -4 -12.5 -19t-6.5 -26v-378q0 -23 12.5 -38.5t29 -21.5t36 -1t31.5 24q47 61 176 149q123 84 244 84q74 0 115.5 -37t41.5 -102q0 -53 -41 -107q-59 -78 -106 -125h2l-571 -530q-6 -6 -13.5 -21.5t-7.5 -23.5v-193z" />
<glyph unicode="3" horiz-adv-x="1406" d="M44 220.5q3 -21.5 17 -34.5q23 -23 82.5 -55.5t149.5 -73.5q182 -82 412 -82q319 0 487 130.5t168 402.5q0 186 -103.5 303t-304.5 160l297 278q4 4 11.5 19.5t7.5 25.5v252q0 25 -19.5 43.5t-44.5 18.5h-1030q-25 0 -43 -18.5t-18 -43.5l2 -311q0 -27 18.5 -44t42.5 -17 h543l-250 -193q-6 -4 -12 -19.5t-6 -23.5v-209q0 -27 17 -45t44 -18q221 -6 281 -52q53 -41 53 -90q0 -47 -40 -71.5t-106 -24.5q-154 0 -270 57q-66 35 -108.5 56.5t-65.5 36.5q-23 16 -49.5 8t-38.5 -37l-121 -291q-6 -16 -3 -37.5z" />
<glyph unicode="4" horiz-adv-x="1517" d="M45 307q0 -25 18.5 -43t42.5 -18h635v-185q0 -25 18.5 -43t43.5 -18h397q25 0 43.5 18.5t18.5 42.5v185l149 2q27 0 44.5 18.5t17.5 42.5v309q0 25 -17.5 43.5t-44.5 18.5h-149v864q0 25 -18.5 43.5t-43.5 18.5h-385q-10 0 -26.5 -7.5t-22.5 -15.5l-721 -899v-377z M432 680l309 381v-381h-309z" />
<glyph unicode="5" horiz-adv-x="1470" d="M49 180q-8 -23 1 -46t32 -34q31 -16 89 -36.5t144 -43.5q166 -45 392 -45q344 0 531 135.5t187 407.5q0 135 -46 238.5t-133 175.5t-212 108.5t-282 36.5q-45 0 -91.5 -3t-87.5 -13l17 131h694q25 0 43.5 18.5t18.5 42.5v293q0 25 -19.5 43.5t-44.5 18.5h-973 q-23 0 -41 -16.5t-20 -39.5l-74 -675q-2 -16 8.5 -34t24.5 -28l262 -166q8 -6 25.5 -8t27.5 2q82 31 197 31q84 0 135 -37t51 -96q0 -66 -62.5 -103t-160.5 -37q-72 0 -139.5 11.5t-136.5 38.5q-68 27 -108 42t-50 19q-25 16 -50.5 7t-35.5 -38z" />
<glyph unicode="6" horiz-adv-x="1447" d="M45 791q0 -440 170 -629q172 -186 510 -187q328 0 503 135.5t175 405.5q0 262 -156.5 403.5t-443.5 141.5q-143 0 -254 -37q6 33 13 60.5t18 54.5q49 115 194 114q160 0 250 -32q47 -16 94 -35t94 -41q35 -16 60.5 1t25.5 54v297q0 14 -10 30.5t-20 22.5 q-66 35 -197 60.5t-295 25.5q-330 0 -530.5 -188t-200.5 -657zM539 584q8 31 19.5 50.5t27.5 31.5h-2q57 39 139 39q184 0 184 -179q0 -80 -48 -125t-134 -45q-125 0 -156 60h2q-18 35 -32 168z" />
<glyph unicode="7" horiz-adv-x="1425" d="M45 1206q0 -25 18.5 -43t42.5 -18h717q-86 -117 -160.5 -230.5t-140.5 -228.5q-164 -283 -291 -600q-14 -35 4.5 -60.5t53.5 -25.5h461q18 0 36.5 13.5t22.5 31.5q53 182 114.5 351t137.5 327q76 160 155.5 293t163.5 239v289q0 25 -18.5 43.5t-42.5 18.5h-1213 q-25 0 -43 -18.5t-18 -43.5v-338z" />
<glyph unicode="8" horiz-adv-x="1472" d="M45 492q0 -125 47 -221.5t136 -162t217 -99.5t290 -34q328 0 510 134.5t182 396.5q0 174 -108 287h2q-51 53 -115 92q78 55 118 134t40 167q0 209 -188 336q-176 115 -441 114q-274 0 -444 -114q-184 -121 -185 -334q0 -86 35 -165t119 -138q-115 -68 -165 -163t-50 -230 zM545 524q0 158 190 158q92 0 140.5 -40t48.5 -118t-48.5 -117.5t-138.5 -39.5q-193 0 -192 157zM590 1145q0 49 39.5 73.5t105.5 24.5t105 -25.5t39 -72.5t-39 -71.5t-105 -24.5q-68 0 -106.5 24.5t-38.5 71.5z" />
<glyph unicode="9" horiz-adv-x="1447" d="M45 1094q0 -262 157.5 -403.5t444.5 -141.5q70 0 131.5 8t114.5 25q-4 -27 -9 -50.5t-14 -48.5q-33 -125 -194 -125q-78 0 -140.5 7.5t-109.5 23.5h2q-47 16 -94 35.5t-94 42.5q-35 16 -61.5 -1t-26.5 -54v-297q0 -12 11 -29.5t21 -24.5q63 -37 193.5 -60.5t296.5 -23.5 q332 0 530 187q102 96 150.5 259t48.5 398q0 438 -170 627q-172 188 -508 188q-328 0 -504 -136t-176 -406zM543 1083q0 80 48 125t134 45q123 0 152 -59q10 -18 16 -54t14 -96q-10 -39 -23.5 -65.5t-31.5 -36.5q-61 -37 -127 -37q-182 0 -182 178z" />
<glyph unicode=":" horiz-adv-x="438" d="M45 51q0 -23 14.5 -37t34.5 -14h250q20 0 34.5 14.5t14.5 36.5v299q0 23 -14 37t-35 14h-250q-20 0 -34.5 -14t-14.5 -37v-299zM45 809q0 -23 14.5 -37t34.5 -14h250q20 0 34.5 14t14.5 37v299q0 23 -14 37t-35 14h-250q-20 0 -34.5 -14.5t-14.5 -36.5v-299z" />
<glyph unicode=";" horiz-adv-x="438" d="M45 100q0 -23 14.5 -39t34.5 -16h53l-61 -178q-10 -29 4 -52.5t43 -23.5h125q12 0 26.5 10.5t18.5 24.5l90 260v303q0 23 -14 39t-35 16h-250q-20 0 -34.5 -16t-14.5 -39v-289zM45 809q0 -23 14.5 -37t34.5 -14h250q20 0 34.5 14t14.5 37v299q0 23 -14 37t-35 14h-250 q-20 0 -34.5 -14.5t-14.5 -36.5v-299z" />
<glyph unicode="&#x3c;" horiz-adv-x="1263" d="M45 467q0 -16 11.5 -34.5t27.5 -22.5l1053 -422q33 -12 57.5 5t24.5 52v299q0 16 -11.5 34.5t-27.5 22.5l-463 189l463 188q16 4 27.5 22.5t11.5 35.5v301q0 35 -25 52t-57 5l-1053 -424q-16 -4 -27.5 -22.5t-11.5 -34.5v-246z" />
<glyph unicode="=" horiz-adv-x="1269" d="M45 82q0 -18 19.5 -32.5t44.5 -14.5h1056q25 0 42.5 14t17.5 33v221q0 20 -18.5 33.5t-43.5 13.5h-1057q-25 0 -43 -13t-18 -34v-221zM45 836l2 -222q0 -18 18.5 -32.5t43.5 -14.5h1056q25 0 42.5 14.5t17.5 32.5v222q0 20 -18.5 33.5t-43.5 13.5h-1057q-25 0 -43 -13.5 t-18 -33.5z" />
<glyph unicode="&#x3e;" horiz-adv-x="1269" d="M45 45q0 -35 26.5 -52.5t59.5 -4.5l1057 422q12 4 24.5 22.5t12.5 34.5v246q0 16 -12.5 33.5t-26.5 23.5l-1057 424q-31 12 -57.5 -5.5t-26.5 -51.5v-301q0 -16 12.5 -35t28.5 -23l467 -188l-467 -189q-16 -4 -28.5 -22.5t-12.5 -34.5v-299z" />
<glyph unicode="?" horiz-adv-x="1193" d="M47 1382l76 -233q10 -31 36.5 -40t53.5 7q72 47 186 94q55 23 100.5 34t82.5 11q47 0 75 -36q35 -39 35 -82q0 -25 -14 -47.5t-37 -42.5q-49 -45 -135 -105q-88 -74 -128 -142.5t-40 -146.5v-75q0 -25 19.5 -43.5t43.5 -18.5h285q23 0 40 18.5t17 40.5l5 46q2 18 8 34.5 t22.5 36t45 42t71.5 52.5l-4 -4q47 29 88 66t82 82q86 100 86 250q0 178 -152 307q-72 61 -170 94t-229 33h-2q-57 0 -124 -14.5t-146 -40.5q-76 -25 -138.5 -50.5t-109.5 -50.5q-16 -10 -25.5 -32.5t-3.5 -43.5zM326 61q0 -25 19.5 -43t43.5 -18h309q25 0 42.5 18.5 t17.5 42.5v322q0 27 -18.5 45t-43.5 18h-309q-25 0 -43 -18t-18 -45v-322z" />
<glyph unicode="@" horiz-adv-x="1904" d="M137 582q0 -334 244 -588q246 -252 627 -252q221 0 407 115q184 113 246 231h-199q-53 -59 -184 -108q-135 -47 -297 -48q-238 0 -424 181q-190 180 -190 458q0 270 184 459t438 189q250 0 418 -146q168 -143 168 -340q0 -176 -76 -303q-74 -127 -145 -127l-23 19 q-14 18 -14 40q0 6 1 12.5t3 16.5l125 578h-207l-25 -99q-31 70 -112.5 105t-159.5 35q-221 0 -338 -162q-119 -162 -119 -363q0 -195 111 -295q113 -102 256 -102q74 0 131 39q61 41 88 78q18 -70 51 -96q37 -25 70 -25q205 0 389 190.5t184 448.5q0 274 -219 479 q-219 207 -557 207q-356 0 -604 -252t-248 -575zM737 561q0 74 74 146q70 73 170 73q80 0 125 -51q45 -47 45 -121q0 -82 -66 -184q-68 -100 -172 -100q-70 0 -122 53q-53 57 -54 184z" />
<glyph unicode="A" horiz-adv-x="2158" d="M54 28q18 -28 59 -28h424q16 0 32.5 10t24.5 25l104 201h768l105 -201q6 -14 23.5 -24.5t31.5 -10.5h479q41 0 57 28q8 14 9 29q0 15 -8 33l-793 1481q-8 14 -24.5 24.5t-30.5 10.5h-363q-12 0 -30.5 -10.5t-24.5 -22.5l-842 -1481q-10 -18 -10 -35q0 -15 9 -29zM899 596 l197 356l184 -356h-381z" />
<glyph unicode="B" horiz-adv-x="1538" d="M45 61q0 -25 18.5 -43t42.5 -18h840q240 0 389 121q158 129 158 336q0 186 -102 305q-55 63 -162 106q104 53 153.5 139.5t49.5 198.5q0 92 -38 163t-110 128q-70 53 -157 81t-193 28h-828q-25 0 -43 -18.5t-18 -43.5v-1483zM592 367v305h147q86 0 139.5 -42t53.5 -114 q0 -68 -56.5 -108.5t-142.5 -40.5h-141zM592 983v256h127q80 0 126 -39t46 -92q0 -47 -48 -86t-126 -39h-125z" />
<glyph unicode="C" horiz-adv-x="1783" d="M45 778q0 -389 268 -598q256 -205 709 -205q195 0 361.5 25t308.5 76q16 6 28.5 23.5t12.5 33.5l6 307q0 35 -26.5 53.5t-59.5 6.5q-49 -20 -111.5 -39t-140.5 -41h4q-147 -37 -305 -37q-229 0 -361 111q-61 53 -95 127.5t-34 169.5h2q0 215 128 331.5t358 116.5 q70 0 138.5 -10t137.5 -29q141 -37 232 -70q33 -12 59.5 7.5t22.5 56.5l-23 301q-2 16 -14.5 32.5t-28.5 20.5q-111 37 -266.5 62.5t-354.5 25.5q-227 0 -405 -56t-301 -164.5t-186.5 -268.5t-63.5 -369z" />
<glyph unicode="D" horiz-adv-x="1869" d="M45 61q0 -25 18.5 -43t45.5 -18h901q358 0 585 225q229 227 230 578q0 358 -228 579q-229 223 -596 224h-892q-27 0 -45.5 -18.5t-18.5 -43.5v-1483zM625 487v631h360q139 0 211 -79.5t72 -237.5q0 -156 -76 -235t-223 -79h-344z" />
<glyph unicode="E" horiz-adv-x="1462" d="M45 61q0 -25 18.5 -43t42.5 -18h1250q27 0 44 18.5t17 42.5v299q0 27 -17.5 45.5t-43.5 18.5h-744v172l588 2q25 0 43.5 18.5t18.5 45.5v294q0 25 -18.5 43.5t-43.5 18.5h-588v164h688q25 0 43.5 18.5t18.5 44.5v299q0 25 -18.5 43.5t-43.5 18.5h-1194q-25 0 -43 -18.5 t-18 -43.5v-1483z" />
<glyph unicode="F" horiz-adv-x="1472" d="M45 61q0 -25 18.5 -43t45.5 -18h442q27 0 44 18.5t17 42.5v506h555q25 0 43.5 18.5t18.5 43.5l2 297q0 27 -18.5 44t-43.5 17h-557v195h754q27 0 44 18.5t17 44.5v299q0 25 -17 43.5t-44 18.5h-1257q-27 0 -45.5 -18.5t-18.5 -43.5v-1483z" />
<glyph unicode="G" horiz-adv-x="1933" d="M45 774q0 -408 268.5 -603.5t773.5 -195.5q223 0 415 29t341 76q18 6 31.5 23.5t13.5 35.5v719q0 27 -18.5 44.5t-44.5 17.5h-656q-27 0 -45 -17.5t-18 -44.5v-272q0 -27 18.5 -45.5t44.5 -18.5h215v-102q-96 -37 -280 -37q-231 0 -363 111q-129 111 -129 299 q0 201 142 323q147 123 389 123q78 0 154.5 -8t152.5 -23q156 -31 266 -63q35 -10 59.5 11.5t20.5 55.5l-35 285q-2 16 -15 31.5t-30 19.5q-106 33 -280 60.5t-392 27.5q-446 0 -722 -229q-276 -233 -277 -633z" />
<glyph unicode="H" horiz-adv-x="1765" d="M45 61q0 -25 18.5 -43t42.5 -18h451q27 0 45.5 18.5t18.5 42.5v547h522v-547q0 -25 18.5 -43t44.5 -18h451q27 0 45 18.5t18 42.5v1483q0 25 -18.5 43.5t-44.5 18.5h-451q-27 0 -45 -18.5t-18 -43.5v-514h-522v514q0 25 -18.5 43.5t-45.5 18.5h-451q-25 0 -43 -18.5 t-18 -43.5v-1483z" />
<glyph unicode="I" horiz-adv-x="577" d="M45 61q0 -25 15.5 -43t37.5 -18h381q23 0 38 18.5t15 42.5v1483q0 25 -15 43.5t-38 18.5h-381q-23 0 -38 -18.5t-15 -43.5v-1483z" />
<glyph unicode="J" horiz-adv-x="1275" d="M47 571l59 -467q2 -10 11.5 -25.5t19.5 -21.5q20 -12 66.5 -28.5t122.5 -40.5q154 -49 297 -49q268 0 436 155q172 162 172 412v1053q0 27 -17.5 45t-42.5 18h-438q-25 0 -43 -18.5t-18 -44.5v-906q0 -176 -193 -176q-104 0 -194 51q-98 55 -131 95q-16 18 -36 21 t-37.5 -5t-27.5 -25q-7 -13 -7 -29q0 -7 1 -14z" />
<glyph unicode="K" horiz-adv-x="1939" d="M45 61q0 -25 18.5 -43t42.5 -18h445q25 0 43 18.5t18 42.5v560l621 -605q6 -4 21.5 -10t23.5 -6h551q23 0 38 10t22 26q4 10 4 22q0 6 -1 14q-4 18 -20 34l-780 762l575 633q14 14 16.5 32.5t-5 35t-24 27t-36.5 10.5h-475q-8 0 -24.5 -7.5t-22.5 -13.5l-484 -551v510 q0 25 -18.5 43.5t-42.5 18.5h-445q-25 0 -43 -18.5t-18 -43.5v-1483z" />
<glyph unicode="L" horiz-adv-x="1495" d="M45 61q0 -25 18.5 -43t45.5 -18h1280q25 0 43 18.5t18 42.5v353q0 27 -19.5 44t-44.5 17h-774l2 1069q0 25 -19.5 43.5t-43.5 18.5h-445q-27 0 -44 -18.5t-17 -43.5v-1483z" />
<glyph unicode="M" horiz-adv-x="2353" d="M45 61q0 -25 18.5 -43t45.5 -18h409q27 0 45.5 18.5t18.5 42.5v799l442 -825q8 -14 24.5 -24.5t30.5 -10.5h193q14 0 30.5 10t24.5 25l445 827v-801q0 -25 18 -43t45 -18h410q27 0 45 18.5t18 42.5v1483q0 25 -18.5 43.5t-44.5 18.5h-482q-14 0 -30.5 -9.5t-24.5 -21.5 l-530 -870l-537 870q-6 12 -23.5 21.5t-29.5 9.5h-479q-27 0 -45.5 -18.5t-18.5 -43.5v-1483z" />
<glyph unicode="N" horiz-adv-x="1765" d="M45 61q0 -25 18.5 -43t42.5 -18h400q27 0 45 18.5t18 42.5v742l578 -778q8 -10 24.5 -17.5t26.5 -7.5h459q27 0 45 18.5t18 42.5v1483q0 25 -18.5 43.5t-44.5 18.5h-400q-27 0 -45 -18.5t-18 -43.5v-753q-59 82 -116.5 160.5t-116.5 156.5q-88 117 -173.5 232.5 t-175.5 238.5q-4 10 -21.5 18.5t-29.5 8.5h-455q-25 0 -43 -18.5t-18 -43.5v-1483z" />
<glyph unicode="O" horiz-adv-x="2015" d="M45 805q0 -420 243.5 -625t719.5 -205q475 0 718.5 205t243.5 625t-243.5 625.5t-718.5 205.5t-719 -205.5t-244 -625.5zM614 805q0 176 100.5 265t293.5 89t294 -89t101 -265t-101.5 -265t-293.5 -89q-193 0 -293.5 89t-100.5 265z" />
<glyph unicode="P" horiz-adv-x="1542" d="M45 61q0 -25 19.5 -43t44.5 -18h434q27 0 45 18.5t18 42.5v512l211 -2h20q321 0 488 124q172 128 172 401q0 137 -50 234t-148.5 158.5t-246 89.5t-341.5 28h-605q-25 0 -43 -18.5t-18 -43.5v-1483zM604 940v291l119 8q18 1 34 1q87 0 138 -35q61 -42 61 -120 q0 -150 -216 -150q-15 0 -31 1z" />
<glyph unicode="Q" horiz-adv-x="2029" d="M45 811q0 -422 246 -629t717 -207q47 0 84.5 1t66.5 4q10 -8 17.5 -14.5t13.5 -12.5q199 -182 524 -182q25 0 50.5 2t50 5t45 6t30.5 7q14 4 26.5 18.5t16.5 28.5l49 246q2 9 2 18q0 27 -20 44q-16 16 -38 16q-11 0 -23 -4t-27.5 -6t-56.5 -2q-35 0 -64 4t-55 10l18 18 q254 213 254 629q0 422 -245.5 631t-718.5 209q-471 0 -717 -209t-246 -631zM614 811q0 178 100.5 268t293.5 90q195 0 295 -90t100 -268q0 -176 -100.5 -266t-294.5 -90q-193 0 -293.5 90t-100.5 266z" />
<glyph unicode="R" horiz-adv-x="1931" d="M45 61q0 -25 18.5 -43t42.5 -18h455q27 0 45.5 18.5t18.5 42.5v506h198q111 0 127 -12q10 -6 19.5 -16.5t17.5 -20.5l-2 4l262 -487q8 -14 23.5 -24.5t32.5 -10.5h520q39 0 56 30q8 14 8 28q0 17 -11 36l-281 473q-31 41 -76.5 82t-111.5 76q55 18 101 42t81 50 q141 104 142 338q0 207 -172 334q-160 117 -424 117h-1029q-25 0 -43 -18.5t-18 -43.5v-1483zM612 934v305h320q113 0 172 -35t59 -110q0 -90 -77.5 -125t-227.5 -35h-246z" />
<glyph unicode="S" horiz-adv-x="1495" d="M45 1112q0 -221 150 -344q137 -115 491 -186q188 -37 242 -70q33 -23 33 -45q0 -43 -56.5 -65.5t-148.5 -22.5q-150 0 -334 61q-178 63 -279 113q-16 7 -30 7q-17 0 -33 -10q-25 -17 -25 -49v-9l33 -390q2 -18 16.5 -34.5t32.5 -20.5q23 -4 65 -13t101 -20v2 q16 -4 31.5 -6t36.5 -6q88 -14 177 -21.5t179 -7.5q168 0 302 36t227.5 104.5t143.5 170t50 234.5q0 205 -137 336q-123 123 -455 188q-92 16 -159.5 36t-114.5 36q-51 18 -52 51q0 35 50.5 49.5t142.5 14.5q121 0 272 -43q76 -23 145.5 -49.5t133.5 -57.5q16 -8 31 -8 q17 -1 33 11q25 19 24 52v9l-41 358q-2 16 -15.5 32.5t-29.5 20.5q-39 12 -97.5 24.5t-136.5 27.5q-157 28 -295 28h-10q-328 0 -511 -133t-183 -391z" />
<glyph unicode="T" horiz-adv-x="1632" d="M59 1266q0 -27 17.5 -45.5t44.5 -18.5h424v-1141q0 -25 18.5 -43t42.5 -18h449q27 0 44 18.5t17 42.5v1141h422q27 0 45.5 18.5t18.5 45.5v278q0 25 -18.5 43.5t-45.5 18.5h-1417q-27 0 -44.5 -18.5t-17.5 -43.5v-278z" />
<glyph unicode="U" horiz-adv-x="1751" d="M45 526q0 -317 219 -440q199 -111 608 -111q397 0 607 111q227 123 227 420v1040q0 25 -18.5 43.5t-42.5 18.5h-422q-27 0 -45.5 -18.5t-18.5 -43.5v-837q0 -141 -65.5 -204t-212.5 -63q-156 0 -222.5 59.5t-66.5 200.5v844q0 25 -18.5 43.5t-45.5 18.5h-419 q-27 0 -45.5 -18.5t-18.5 -43.5v-1020z" />
<glyph unicode="V" horiz-adv-x="1974" d="M53 1520l740 -1508q6 -14 24.5 -25.5t32.5 -11.5h268q14 0 31.5 10.5t26.5 24.5l745 1508q8 17 8 32q0 16 -9 30q-17 28 -56 28h-447q-16 0 -33.5 -11.5t-23.5 -25.5l-356 -795l-371 795q-8 16 -24.5 26.5t-33.5 10.5h-464q-37 0 -55 -27q-10 -14 -10 -31q0 -14 7 -30z " />
<glyph unicode="W" horiz-adv-x="2746" d="M51 1524l549 -1508q6 -16 24.5 -28.5t34.5 -12.5h234q16 0 34.5 11.5t24.5 25.5l412 897l430 -897q8 -16 24.5 -26.5t32.5 -10.5h236q16 0 34.5 12.5t24.5 28.5l549 1508q5 14 5 26q0 18 -11 34q-18 24 -53 24h-436q-18 0 -37 -12.5t-25 -28.5l-246 -676l-321 680 q-4 16 -22.5 26.5t-35.5 10.5h-278q-16 0 -34.5 -11.5t-24.5 -25.5l-332 -682l-240 678q-6 16 -25.5 28.5t-35.5 12.5h-430q-35 0 -55 -24q-12 -15 -12 -35q0 -12 5 -25z" />
<glyph unicode="X" horiz-adv-x="2121" d="M47 68v-7q0 -13 5 -25q7 -16 22.5 -26t38.5 -10h483q10 0 26.5 7t20.5 16l418 479l381 -477q6 -8 23.5 -16.5t27.5 -8.5h518q43 0 59 34q6 13 5 26q0 21 -15 40l-594 740l576 661q18 21 18 43q0 13 -6 26q-16 36 -61 36h-477q-10 0 -26.5 -7.5t-21.5 -13.5l-360 -405 l-373 405q-4 6 -19.5 13.5t-25.5 7.5h-538q-23 0 -38.5 -10.5t-22.5 -26t-4 -33.5t17 -35l601 -661l-642 -738q-14 -16 -16 -34z" />
<glyph unicode="Y" horiz-adv-x="2136" d="M52 1571q-6 -13 -6 -27q0 -21 17 -41l715 -860v-582q0 -25 18.5 -43t43.5 -18h458q27 0 45.5 18.5t18.5 42.5v582l713 860q16 20 16 40q0 14 -7 28q-18 35 -61 35h-485q-10 0 -28.5 -8.5t-22.5 -18.5l-379 -510l-416 514q-6 8 -22.5 15.5t-26.5 7.5h-530q-43 0 -61 -35z " />
<glyph unicode="Z" horiz-adv-x="1699" d="M45 61q0 -25 18.5 -43t45.5 -18h1484q25 0 43.5 18.5t18.5 42.5v334q0 25 -18.5 43.5t-43.5 18.5h-743l764 747q6 6 12 22.5t6 24.5v293q0 25 -18.5 43.5t-42.5 18.5h-1436q-25 0 -43 -18.5t-18 -43.5v-299q0 -27 18.5 -45t42.5 -18h703l-775 -766q-4 -6 -11 -21.5 t-7 -21.5v-312z" />
<glyph unicode="[" horiz-adv-x="673" d="M45 -195q0 -27 16.5 -45t38.5 -18h475q23 0 38.5 18.5t15.5 44.5v181q0 25 -15.5 43t-38.5 18h-190v1299h190q23 0 38.5 18t15.5 45v180q0 27 -15.5 45.5t-38.5 18.5h-475q-23 0 -39 -18.5t-16 -45.5v-1784z" />
<glyph unicode="\" horiz-adv-x="1142" d="M51 1548l651 -1536q6 -14 22.5 -25.5t33.5 -11.5h276q35 0 53.5 27t2.5 61l-654 1534q-6 16 -22.5 27.5t-32.5 11.5h-275q-35 0 -52 -26.5t-3 -61.5z" />
<glyph unicode="]" horiz-adv-x="673" d="M45 -14v-181q0 -27 16.5 -45t38.5 -18h473q23 0 39.5 18.5t16.5 44.5v1784q0 27 -16.5 45.5t-39.5 18.5h-473q-23 0 -39 -18.5t-16 -45.5v-180q0 -27 16.5 -45t38.5 -18h189v-1299h-189q-23 0 -39 -18t-16 -43z" />
<glyph unicode="^" horiz-adv-x="1228" d="M53 719q-16 -33 1.5 -58.5t51.5 -25.5h306q16 0 32.5 11t22.5 24l147 323l148 -323q6 -12 22.5 -23.5t32.5 -11.5h303q37 0 54.5 25.5t1.5 58.5l-373 756q-6 10 -23.5 21t-31.5 11h-267q-14 0 -32.5 -11t-22.5 -21z" />
<glyph unicode="_" horiz-adv-x="933" d="M-57 -221v-43q0 -12 17 -20.5t42 -8.5h905q25 0 42.5 8.5t17.5 20.5v43q0 12 -17.5 21.5t-42.5 9.5h-905q-25 0 -42 -9.5t-17 -21.5z" />
<glyph unicode="`" horiz-adv-x="849" d="M50 1555.5q-15 -29.5 11 -58.5l383 -397q6 -4 20.5 -11.5t24.5 -7.5h254q37 0 53.5 27t-3.5 55l-265 398q-6 8 -21 16t-28 8h-375q-39 0 -54 -29.5z" />
<glyph unicode="a" d="M63 346q0 -170 112 -270.5t325 -100.5q109 0 213 31t196 78q10 -12 21.5 -22.5t25.5 -22.5q74 -61 181 -62l217 181q18 14 22 32q2 7 2 15q0 11 -4 21q-6 16 -21.5 27t-37.5 11l-15 10q-14 12 -14 13v420q0 135 -34.5 230t-106.5 154.5t-182.5 87t-262.5 27.5 q-94 0 -178 -16t-162 -45q-78 -31 -126 -56.5t-70 -46.5q-10 -10 -15.5 -30.5t1.5 -36.5l77 -178q10 -25 36 -34t48 3q35 16 74 32.5t86 35.5q51 20 100.5 28t102.5 8q72 0 112.5 -30.5t42.5 -94.5l-172 9q-22 1 -42 1q-105 0 -193 -25q-106 -30 -189 -85 q-170 -117 -170 -299zM516 346q0 100 313 100h7v-96q-14 -6 -31 -13t-37 -15q-68 -27 -147 -27q-104 0 -105 51z" />
<glyph unicode="b" d="M45 61q0 -25 18.5 -43t42.5 -18h189q14 0 29.5 10t23.5 23l58 104q27 -20 53 -38.5t57 -41.5q119 -82 301 -82q248 0 400 179q143 170 143 452q0 283 -139 453q-72 90 -168.5 134t-223.5 44q-123 0 -241 -53v2q-18 -8 -33.5 -15.5t-32.5 -15.5v391q0 25 -18.5 43.5 t-42.5 18.5h-355q-25 0 -43 -18.5t-18 -43.5v-1485zM522 412v417q6 4 18.5 9.5t28.5 15.5q55 31 113 31q111 0 168 -78t57 -225q0 -117 -48 -191t-128 -74q-72 0 -137 41h2q-25 16 -43 29.5t-31 24.5z" />
<glyph unicode="c" horiz-adv-x="1116" d="M45 575q0 -274 166 -438q168 -162 440 -162q106 0 211 27q106 29 135 45q8 4 19.5 19.5t11.5 25.5l37 275q4 29 -13.5 49t-45.5 20q-14 0 -22.5 -3t-18.5 -9h4q-12 -4 -34 -12.5t-54 -20.5q-84 -33 -154 -33q-127 0 -186.5 53.5t-59.5 166.5q0 127 55.5 198.5t153.5 71.5 q80 0 162 -33q47 -18 78 -32.5t47 -26.5q19 -12 37 -12q14 0 28 8q27 17 27 52v9l-27 270q0 12 -12 28.5t-22 21.5q-53 25 -134 49t-208 24q-285 0 -453 -170q-84 -86 -126 -199.5t-42 -261.5z" />
<glyph unicode="d" d="M45 606q0 -285 145 -454q152 -176 402 -177q178 0 289 74q33 23 61.5 44.5t56.5 43.5l56 -104q6 -12 22.5 -22.5t32.5 -10.5h188q25 0 43.5 18.5t18.5 42.5v1485q0 25 -18.5 43.5t-43.5 18.5h-352q-27 0 -44 -18.5t-17 -43.5v-391q-18 10 -37 17.5t-39 17.5 q-109 47 -219 47q-256 0 -404 -176q-141 -170 -141 -455zM498 582q0 141 57 222t168 81q63 0 108 -29q16 -8 29.5 -15t24.5 -12v-421q-10 -8 -27.5 -20t-44.5 -28q-68 -43 -123 -43q-92 0 -142 71t-50 194z" />
<glyph unicode="e" horiz-adv-x="1210" d="M45 610q0 -299 180.5 -467t481.5 -168q59 0 118.5 7.5t114.5 20.5t103.5 31.5t84.5 43.5l25 74l-76 192q-10 23 -33.5 33t-46.5 0q-8 -4 -28.5 -10.5t-57.5 -16.5q-68 -18 -141 -18q-150 0 -211 61q-20 18 -37 53h584q25 0 42 18.5t17 43.5v90q0 270 -147 436 q-154 172 -402 172t-409 -170q-162 -168 -162 -426zM504 719q8 57 28 96q27 55 82 55q41 0 68 -39.5t35 -111.5h-213z" />
<glyph unicode="f" horiz-adv-x="1036" d="M45 901q0 -27 17.5 -44t41.5 -17h164v-779q0 -25 17.5 -43t42.5 -18h340q25 0 42 18.5t17 42.5v779h205q25 0 42 17t17 44v197q0 25 -17.5 43t-41.5 18h-205v47q0 47 39 47q41 0 73.5 -8t51.5 -14q2 0 8 -1t8 -1q25 0 42.5 18.5t17.5 44.5v221q0 16 -12.5 35t-24.5 23 q-43 16 -102.5 25.5t-141.5 9.5q-193 0 -305.5 -91.5t-112.5 -269.5v-86h-164q-25 0 -42 -18.5t-17 -42.5v-197z" />
<glyph unicode="g" horiz-adv-x="1316" d="M45 635q0 -117 33 -213t104 -178q141 -162 357 -162q78 0 144.5 20.5t131.5 59.5v-10q0 -59 -60.5 -90t-170.5 -31q-66 0 -126.5 10t-119.5 33q-61 23 -99 38t-55 21q-16 8 -34 8q-16 0 -28.5 -8t-21 -23.5t-6.5 -33.5l15 -209q0 -10 11 -27.5t21 -23.5 q16 -10 62.5 -24.5t118.5 -31.5q72 -18 152.5 -37.5t168.5 -19.5q145 0 262 30.5t198 89t125 144.5t44 199v993q0 27 -18.5 44.5t-43.5 17.5h-211q-14 0 -31.5 -11.5t-23.5 -23.5l-37 -78q-25 23 -61.5 44.5t-60 32.5t-27.5 13q-98 31 -205 31q-231 0 -373 -168 q-135 -166 -135 -426zM496 633q0 117 37.5 172t130.5 55q49 0 108 -39q41 -29 47 -16v-316q-16 -10 -32.5 -22.5t-34.5 -22.5q-55 -34 -84 -34h-2q-78 0 -124 61t-46 162z" />
<glyph unicode="h" horiz-adv-x="1304" d="M45 61q0 -25 17.5 -43t41.5 -18h351q25 0 43 18.5t18 42.5v723q12 6 28.5 14.5t39.5 18.5h-2q68 33 135 33q35 0 52 -38t17 -97v-654q0 -25 18.5 -43t43.5 -18h350q25 0 43.5 18.5t18.5 42.5v723q0 219 -99.5 335t-302.5 116q-94 0 -180 -25.5t-162 -72.5v407 q0 25 -18.5 43.5t-42.5 18.5h-351q-25 0 -42 -18.5t-17 -43.5v-1483z" />
<glyph unicode="i" horiz-adv-x="528" d="M49 61q0 -25 14.5 -43t36.5 -18h330q20 0 34.5 18.5t14.5 42.5v1086q0 12 -10 23.5t-24.5 19.5t-30 13t-25.5 5h-289q-23 0 -37 -18.5t-14 -42.5v-1086zM70 1473q0 -90 52 -142.5t142 -52.5q92 0 143.5 52t51.5 143q0 90 -51.5 142t-143.5 52q-90 0 -142 -52t-52 -142z " />
<glyph unicode="j" horiz-adv-x="610" d="M-162 -121l72 -215q6 -16 21.5 -29.5t31.5 -13.5h133q440 0 441 457v1081q0 27 -16.5 45.5t-39.5 18.5h-327q-23 0 -39.5 -18.5t-16.5 -45.5v-1034q0 -68 -23.5 -98.5t-88.5 -44.5l-92 -19q-33 -6 -50 -27q-10 -14 -10 -33q0 -11 4 -24zM98 1473q0 -90 58.5 -143.5 t160.5 -53.5t161 53t59 144q0 92 -58.5 144t-161.5 52q-102 0 -160.5 -52t-58.5 -144z" />
<glyph unicode="k" horiz-adv-x="1429" d="M45 61q0 -25 19.5 -43t44.5 -18h354q25 0 43 18.5t18 42.5v381l375 -422q6 -6 21.5 -13t23.5 -7h377q43 0 59 35q5 12 5 24q0 22 -19 43l-471 560l465 440q16 14 19 34q1 6 1 12q0 12 -4 22q-6 16 -21.5 27t-37.5 11h-422l-373 -370v706q0 25 -18.5 43.5t-42.5 18.5h-352 q-27 0 -45.5 -18.5t-18.5 -43.5v-1483z" />
<glyph unicode="l" horiz-adv-x="548" d="M45 61q0 -25 14.5 -43t36.5 -18h330q20 0 34.5 18.5t14.5 42.5v1483q0 25 -14.5 43.5t-34.5 18.5h-330q-23 0 -37 -18.5t-14 -43.5v-1483z" />
<glyph unicode="m" horiz-adv-x="2066" d="M45 61q0 -27 18.5 -44t45.5 -17h364q27 0 45.5 17.5t18.5 43.5v703q10 8 26.5 16t38.5 19h-2q66 30 127 30h4q29 0 43 -36.5t14 -96.5v-635q0 -27 18.5 -44t45.5 -17h365q27 0 45 17.5t18 43.5v705q10 6 27.5 13t40.5 18q33 16 63.5 24t61.5 8q29 0 43 -36.5t14 -96.5 v-635q0 -27 18.5 -44t44.5 -17h365q27 0 45 17.5t18 43.5v703q0 440 -415 440q-78 0 -151 -18.5t-144 -52.5q-39 -20 -71 -38t-60 -34q-43 63 -120 103t-179 40q-117 0 -219.5 -34.5t-190.5 -96.5l-49 78q-8 10 -25.5 18.5t-29.5 8.5h-258q-27 0 -45.5 -17.5t-18.5 -42.5 v-1057z" />
<glyph unicode="n" horiz-adv-x="1304" d="M45 61q0 -27 17.5 -44t41.5 -17h351q25 0 43 17.5t18 43.5v703q12 8 28.5 15t39.5 18h-2q35 16 67.5 24t67.5 8t52 -36.5t17 -96.5v-635q0 -27 18.5 -44t43.5 -17h350q25 0 43.5 17.5t18.5 43.5v703q0 215 -99.5 327.5t-302.5 112.5q-113 0 -216 -34.5t-189 -96.5l-47 78 q-8 10 -24.5 18.5t-27.5 8.5h-250q-25 0 -42 -17.5t-17 -42.5v-1057z" />
<glyph unicode="o" horiz-adv-x="1394" d="M45 590q0 -285 178 -451q176 -164 473 -164q299 0 475 164q179 166 179 451q0 287 -179 452q-180 164 -475 164q-293 0 -473 -164q-178 -166 -178 -452zM479 590q0 115 57.5 179.5t159.5 64.5q104 0 161.5 -64.5t57.5 -179.5t-57 -179.5t-162 -64.5q-102 0 -159.5 64.5 t-57.5 179.5z" />
<glyph unicode="p" d="M45 -168q0 -27 18.5 -45t42.5 -18h355q25 0 43 18t18 45v283q68 -37 140.5 -53.5t154.5 -16.5q238 0 391 164q152 164 152 418q0 264 -158 428v-2q-158 172 -405 172q-102 0 -194.5 -31t-178.5 -102l-47 77q-8 10 -23.5 20.5t-29.5 10.5h-218q-25 0 -43 -18.5t-18 -44.5 v-1305zM520 449v348q31 31 78.5 55.5t106.5 24.5q92 0 148 -76t56 -197q0 -109 -49 -171t-137 -62q-61 0 -127 32q-49 25 -76 46z" />
<glyph unicode="q" horiz-adv-x="1406" d="M45 618q0 -248 152 -409q158 -164 393 -164q82 0 153.5 16.5t143.5 55.5v-285q0 -27 17 -45t44 -18h352q25 0 43.5 18t18.5 45v1325q0 25 -18.5 43.5t-43.5 18.5h-210q-14 0 -31 -10.5t-23 -20.5l-57 -96q-84 72 -175 102.5t-190 30.5q-250 0 -411 -174v2 q-158 -170 -158 -435zM498 600q0 123 55 200t147 77q55 0 101.5 -25t81.5 -57v-349q-12 -10 -29.5 -19t-40.5 -21q-63 -35 -127 -35q-88 0 -138 61.5t-50 167.5z" />
<glyph unicode="r" horiz-adv-x="983" d="M45 61q0 -27 17.5 -44t39.5 -17h338q25 0 42.5 17.5t17.5 43.5v598q18 27 67 76q45 45 82 45q45 0 99 -69q20 -27 46 -27q6 0 14 2q34 8 44 47l86 332q-8 18 -25.5 41.5t-43 45.5t-58.5 37t-70 15q-84 0 -158.5 -54t-144.5 -155l-43 142q-4 16 -20.5 28.5t-32.5 12.5 h-240q-23 0 -40 -17.5t-17 -42.5v-1057z" />
<glyph unicode="s" horiz-adv-x="1083" d="M47 340l27 -252q2 -16 14 -30.5t27 -18.5q92 -31 201.5 -48.5t234.5 -17.5q229 0 358 98.5t129 282.5q0 135 -82 222.5t-229 142.5q-127 47 -181 74.5t-54 56.5q0 14 18 25.5t49 11.5q82 0 172 -45q47 -23 75 -38.5t36 -19.5q18 -14 36 -14q14 0 26 7q30 16 30 57v241 q0 16 -10.5 34.5t-24.5 23.5q-29 12 -67.5 25t-85 23.5t-96.5 17.5t-99 7q-104 0 -192.5 -23.5t-153.5 -70.5q-76 -53 -111 -127t-35 -172q0 -193 138 -281q123 -78 200 -102v2q96 -35 152.5 -57.5t56.5 -48.5q0 -16 -22.5 -23.5t-61.5 -7.5q-121 0 -235 45 q-61 23 -100.5 38t-57.5 23q-16 7 -29 7q-18 0 -32 -11q-22 -17 -22 -47q0 -5 1 -10z" />
<glyph unicode="t" horiz-adv-x="1064" d="M88 899q0 -27 18.5 -45t40.5 -18h166v-523q0 -199 99.5 -282.5t318.5 -83.5q41 0 82 6t88 16q43 10 75 18.5t52 18.5q14 4 24.5 21.5t10.5 33.5v244q0 35 -25.5 53.5t-56.5 3.5q-23 -10 -63.5 -24t-92.5 -14q-23 0 -37 19t-14 58v435h230q25 0 42 18t17 45v219 q0 27 -17.5 44.5t-41.5 17.5h-230l2 313q0 29 -20 49q-15 14 -35 14q-7 0 -14 -2l-342 -59q-20 -2 -36 -20.5t-16 -40.5v-254h-166q-23 0 -41 -17.5t-18 -44.5v-219z" />
<glyph unicode="u" horiz-adv-x="1304" d="M45 395q0 -205 99.5 -312.5t297.5 -107.5q117 0 212.5 33t187.5 92l32 -65q4 -14 21.5 -24.5t34.5 -10.5h270q25 0 42.5 17.5t17.5 43.5v1057q0 25 -17.5 42.5t-42.5 17.5h-350q-25 0 -43.5 -17.5t-18.5 -42.5v-704q-20 -10 -43.5 -19.5t-50.5 -21.5h2 q-33 -12 -58.5 -17.5t-41.5 -5.5q-78 0 -78 135v633q0 25 -18.5 42.5t-42.5 17.5h-351q-25 0 -43 -17.5t-18 -42.5v-723z" />
<glyph unicode="v" d="M51 1094l473 -1082q6 -14 22.5 -25.5t33.5 -11.5h243q16 0 33.5 11.5t22.5 25.5l475 1082q6 15 6 28q0 16 -10 30q-18 26 -52 26h-325q-16 0 -33.5 -11.5t-24.5 -27.5l-200 -514l-187 514q-4 14 -22.5 26.5t-34.5 12.5h-365q-35 0 -52 -26q-9 -14 -9 -30q0 -14 6 -28z " />
<glyph unicode="w" horiz-adv-x="2349" d="M68 1094l477 -1082q4 -14 22.5 -25.5t34.5 -11.5h191q16 0 32.5 10.5t24.5 22.5l336 602l334 -602q6 -12 23.5 -22.5t33.5 -10.5h190q16 0 33 11.5t25 25.5l487 1082q6 14 6 27q0 17 -10 31q-18 26 -53 26h-365q-16 0 -35.5 -11.5t-23.5 -27.5l-191 -488l-258 494 q-8 12 -25.5 22.5t-31.5 10.5h-227q-16 0 -33.5 -10.5t-24.5 -22.5l-276 -498l-182 492q-6 14 -24.5 26.5t-37.5 12.5h-395q-37 0 -55 -26q-10 -14 -10 -29q0 -14 8 -29z" />
<glyph unicode="x" horiz-adv-x="1398" d="M53 32q17 -32 58 -32h350q10 0 27.5 8t21.5 19l176 243l166 -243q6 -10 22.5 -18.5t26.5 -8.5h389q40 0 56 30q6 12 7 26q0 19 -14 40l-352 506l348 477q15 20 15 39q0 13 -6 26q-16 32 -58 32h-356q-10 0 -27.5 -8.5t-21.5 -18.5l-164 -231l-158 231q-6 10 -22.5 18.5 t-28.5 8.5h-387q-41 0 -57 -32q-6 -13 -6 -26q0 -19 14 -39l348 -497l-361 -486q-13 -19 -13 -37q0 -14 7 -27z" />
<glyph unicode="y" horiz-adv-x="1480" d="M82 1156q-8 -13 -8 -28q0 -16 10 -34l487 -938l-137 -314q-16 -33 2.5 -59.5t52.5 -26.5h336q16 0 34 11.5t24 25.5l575 1305q7 15 7 29q0 16 -9 31q-16 26 -53 26h-332q-16 0 -33.5 -11.5t-23.5 -27.5l-199 -473l-217 475q-4 14 -21.5 25.5t-33.5 11.5h-406 q-39 0 -55 -28z" />
<glyph unicode="z" horiz-adv-x="1161" d="M45 61q0 -27 17.5 -44t41.5 -17h951q25 0 43 17.5t18 43.5v279q0 25 -18.5 43t-42.5 18h-363l402 447v266q0 27 -17.5 44.5t-42.5 17.5h-901q-25 0 -42 -17.5t-17 -44.5v-278q0 -25 17.5 -43.5t41.5 -18.5h313l-401 -459v-254z" />
<glyph unicode="{" horiz-adv-x="774" d="M45 606q0 -27 16.5 -45t38.5 -18q41 -2 64.5 -22.5t23.5 -51.5v-412q0 -123 74 -217q76 -98 250 -98h162q23 0 39 18.5t16 44.5v181q0 25 -16.5 43t-38.5 18h-96q-39 0 -39 59v371q0 150 -88 219q88 70 88 219v371q0 35 11 47.5t28 12.5h96q23 0 39 18t16 45v180 q0 27 -16.5 45.5t-38.5 18.5h-162q-172 0 -250 -101q-74 -96 -74 -215v-413q0 -31 -23.5 -51.5t-64.5 -22.5q-23 0 -39 -18.5t-16 -45.5v-180z" />
<glyph unicode="|" horiz-adv-x="407" d="M45 37q0 -25 14.5 -43.5t34.5 -18.5h221q18 0 32.5 18.5t14.5 43.5v1509q0 25 -15 43.5t-34 18.5h-221q-20 0 -33.5 -18.5t-13.5 -43.5v-1509z" />
<glyph unicode="}" horiz-adv-x="772" d="M45 -14v-181q0 -27 17.5 -45t39.5 -18h160q170 0 248 100q74 94 74 215v412q0 31 23.5 51.5t64.5 22.5q23 0 39 18.5t16 44.5v180q0 27 -16.5 45.5t-38.5 18.5q-41 2 -64.5 22.5t-23.5 51.5v413q0 121 -74 213q-78 102 -248 103h-160q-23 0 -40 -18.5t-17 -45.5v-180 q0 -27 17.5 -45t39.5 -18h95q16 0 27.5 -12.5t11.5 -47.5v-371q0 -152 86 -219q-86 -68 -86 -219v-371q0 -59 -39 -59h-95q-23 0 -40 -18.5t-17 -42.5z" />
<glyph unicode="~" horiz-adv-x="1214" d="M47 550q-2 -15 2 -26l98 -225q14 -33 49 -35t58 27q33 45 65.5 74.5t69.5 29.5q39 0 172 -57q78 -35 148.5 -51.5t130.5 -16.5q113 0 209 74q78 63 114 113q4 8 5 23.5t-3 21.5l-96 225q-14 35 -48 39t-56 -25q-35 -45 -68 -76.5t-70 -31.5q-41 0 -174 57 q-158 68 -278 68q-117 0 -207 -72q-41 -33 -67.5 -60.5t-47.5 -52.5q-4 -8 -6 -23z" />
<glyph unicode="&#xa1;" horiz-adv-x="466" d="M45 -172q0 -27 14.5 -44t34.5 -17h277q23 0 37 17t14 44v403l-64 568q-4 23 -18 38t-33 15h-149q-18 0 -31.5 -15.5t-17.5 -37.5l-64 -572v-399zM55 985q0 -25 14.5 -43t34.5 -18h256q20 0 35 18.5t15 42.5v322q0 27 -14.5 45t-35.5 18h-256q-20 0 -34.5 -18.5 t-14.5 -44.5v-322z" />
<glyph unicode="&#xa2;" horiz-adv-x="1163" d="M45 625q0 -143 42 -256t126 -201q27 -27 57.5 -50.5t71.5 -45.5l-109 -330q-10 -35 6.5 -59.5t49.5 -24.5h176q16 0 33.5 12.5t23.5 28.5l99 301h36q100 0 211 29q53 14 86 25.5t50 19.5q10 6 19 22.5t11 26.5l37 285q4 29 -13.5 50t-45.5 21q-14 0 -22.5 -3t-18.5 -9h4 q-12 -6 -33.5 -13.5t-56.5 -21.5q-78 -29 -131 -35l149 457q29 -12 48.5 -22.5t31.5 -18.5q35 -23 65.5 -2.5t26.5 61.5l-26 279q0 12 -10.5 26.5t-20.5 22.5l96 293q10 33 -6 58.5t-49 25.5h-176q-16 0 -34 -13.5t-24 -29.5l-86 -256q-16 2 -32 2h-35q-289 0 -457 -178 q-86 -90 -128 -207t-42 -270zM485 627q0 102 34 170.5t95 93.5l-118 -356q-6 20 -8.5 42.5t-2.5 49.5zM850 879q2 -2 14 -7q-12 1 -14 7z" />
<glyph unicode="&#xa3;" horiz-adv-x="1581" d="M45 199q0 -98 52.5 -156.5t181.5 -58.5q92 0 183 32.5t169 110.5q92 -66 204.5 -109t245.5 -43q205 0 326 103q66 53 94.5 152.5t32.5 246.5l2 94q0 29 -17.5 47.5t-45.5 18.5h-220q-23 0 -40 -17.5t-21 -39.5l-10 -88q-18 -68 -84 -68q-31 0 -71 7t-87 18 q-35 10 -68.5 17t-66.5 15q6 27 8 55.5t2 63.5q0 18 -1 33.5t-3 32.5h229q25 0 43.5 17t18.5 44v209q0 25 -18.5 43t-43.5 18h-288q-8 35 -14.5 75t-6.5 79q2 72 42 102.5t112 30.5q63 0 140 -21.5t198 -78.5q25 -12 49 -3t35 36l96 229q8 20 1 43.5t-28 34.5 q-47 29 -107.5 47t-135.5 35q-72 14 -142.5 22t-136.5 8q-285 0 -451 -116q-92 -61 -135 -141.5t-43 -174.5q0 -61 3 -113.5t14 -93.5h-131q-27 0 -44.5 -18t-17.5 -43v-209q0 -27 17.5 -44t44.5 -17h235l45 -152q-82 -6 -146.5 -32.5t-108.5 -68.5t-67.5 -97.5 t-23.5 -116.5z" />
<glyph unicode="&#xa5;" horiz-adv-x="1771" d="M53.5 1575q-16.5 -31 5.5 -66l310 -458h-150q-25 0 -43 -18.5t-18 -45.5v-207q0 -27 18.5 -45t42.5 -18h373l16 -25h-389q-25 0 -43 -18.5t-18 -44.5v-207q0 -27 18.5 -45.5t42.5 -18.5h428v-297q0 -25 17.5 -43t44.5 -18h352q27 0 45 18.5t18 42.5v297h426 q27 0 45.5 18.5t18.5 45.5v207q0 27 -18.5 45t-45.5 18h-389l21 25h368q27 0 45.5 18.5t18.5 44.5v207q0 27 -18.5 45.5t-45.5 18.5h-143l258 381l49 77q23 35 5.5 66t-56.5 31h-360q-12 0 -30 -8.5t-22 -18.5l-366 -506l-340 504q-4 10 -21.5 19.5t-27.5 9.5h-385 q-41 0 -57.5 -31z" />
<glyph unicode="&#xa6;" horiz-adv-x="407" d="M45 37q0 -25 14.5 -43.5t34.5 -18.5h221q18 0 32.5 18.5t14.5 43.5v555q0 27 -15 45t-34 18h-221q-20 0 -33.5 -18.5t-13.5 -44.5v-555zM45 989q0 -27 14.5 -44t34.5 -17h221q18 0 32.5 17.5t14.5 43.5v557q0 25 -15 43.5t-34 18.5h-221q-20 0 -33.5 -18.5t-13.5 -43.5 v-557z" />
<glyph unicode="&#xa7;" horiz-adv-x="1038" d="M45 840q0 -37 11.5 -81t32 -89t50 -86t68.5 -74l-6 2l268 -270v2q35 -37 59.5 -68t24.5 -53q0 -2 -12 -14q-23 -16 -37 -17q-33 0 -65.5 20.5t-67.5 80.5q-14 23 -38 27.5t-46 -11.5l-154 -113q-18 -14 -23.5 -38.5t9.5 -47.5q47 -82 157 -151q53 -35 116 -50.5 t128 -15.5q154 0 254 88h-4q115 94 115 246q0 104 -56 192q88 40 121 103q43 80 43 149q0 37 -11 81t-31.5 88t-50.5 86t-69 75l7 -2l-269 270v-2q-35 37 -58.5 68t-23.5 53q0 8 15 17q23 16 33 16q33 0 64.5 -21.5t70.5 -80.5q14 -23 37.5 -28t46.5 11l151 115 q16 16 19.5 39.5t-6.5 44.5q-25 45 -65 82t-93 71q-109 68 -242 68q-154 0 -252 -90h4q-115 -94 -114 -248q0 -53 12 -99t41 -91q-84 -41 -121 -107q-43 -80 -43 -147zM358 856q0 12 9.5 19.5t21.5 9.5q10 -4 21.5 -13.5t25.5 -23.5h-2q10 -4 15.5 -11.5t11.5 -13.5v4 q16 -16 30.5 -31.5t30.5 -31.5q68 -74 114 -122t46 -89q0 -12 -9 -19.5t-20 -7.5q-10 0 -23.5 10.5t-27.5 26.5v-2q-8 8 -14 15.5t-13 11.5l-28 30q-41 43 -76 77t-63 65q-49 53 -50 96z" />
<glyph unicode="&#xa8;" horiz-adv-x="1130" d="M45 1413q0 -20 18.5 -34.5t42.5 -14.5h322q25 0 42 14.5t17 34.5v262q0 20 -18 34.5t-43 14.5h-322q-25 0 -42 -14t-17 -35v-262zM641 1413q0 -20 19.5 -34.5t41.5 -14.5h324q25 0 42 14.5t17 34.5v262q0 20 -18 34.5t-43 14.5h-322q-25 0 -43 -14t-18 -35v-262z" />
<glyph unicode="&#xa9;" horiz-adv-x="1638" d="M-39 803q0 -354 252 -606q254 -250 608 -250q352 0 604 252q252 248 252 604q0 354 -252 606q-254 250 -608 250h2q-354 0 -606 -252q-252 -250 -252 -604zM188 803q0 256 187 446q180 185 446 185q258 0 445 -187q184 -188 184 -444t-186 -447q-182 -184 -447 -184 q-260 0 -444 186q-184 184 -185 445zM387 811q0 -219 135 -350q133 -133 336 -133q137 0 258 88t127 258h-190q-6 -74 -62 -115q-53 -39 -139 -39q-109 0 -168 84t-59 209q0 121 59 209q55 84 164 84q106 0 149 -45q45 -45 58 -109h188q-8 174 -125 258q-117 82 -280 82 q-211 0 -330 -135q-121 -137 -121 -346z" />
<glyph unicode="&#xaa;" horiz-adv-x="944" d="M45 985q0 -104 75 -167.5t214 -63.5q68 0 133 16t123 43q29 -25 66.5 -42t78.5 -17l139 104q16 12 21.5 29.5t0.5 33t-18.5 28t-33.5 12.5v227q0 166 -92.5 235.5t-290.5 69.5q-125 0 -221 -39q-47 -18 -77 -31.5t-46 -25.5q-16 -10 -21.5 -32t2.5 -38l49 -100 q8 -16 23.5 -24.5t32.5 -8.5q-76 -31 -117 -84t-41 -125zM254 1214q39 14 88 28.5t102 14.5q49 0 68 -24l-78 4q-51 4 -96 -4t-84 -19zM367 985q0 31 157 33v-14q-23 -10 -51 -17.5t-63 -7.5q-43 0 -43 6z" />
<glyph unicode="&#xab;" horiz-adv-x="1400" d="M47 578q0 -20 10 -37l342 -441q6 -6 20.5 -13t24.5 -7h267q39 0 53 32.5t-10 63.5l-324 404l324 401q25 31 10.5 64.5t-53.5 33.5h-267q-10 0 -24 -7t-21 -15l-342 -441q-10 -16 -10 -38zM633 578q0 -20 10 -37l342 -441q6 -6 20.5 -13t24.5 -7h266q39 0 53.5 32.5 t-10.5 63.5l-323 404l323 401q25 31 10.5 64.5t-53.5 33.5h-266q-10 0 -24.5 -7t-20.5 -15l-342 -441q-10 -16 -10 -38z" />
<glyph unicode="&#xac;" horiz-adv-x="1269" d="M45 659q0 -25 19.5 -42t44.5 -17h708v-399q0 -23 18.5 -40.5t43.5 -17.5h286q25 0 42.5 17.5t17.5 40.5v733q0 25 -18.5 42t-43.5 17h-1057q-25 0 -43 -17.5t-18 -41.5v-275z" />
<glyph unicode="&#xad;" horiz-adv-x="823" d="M45 633q0 -20 17.5 -33.5t39.5 -13.5h619q25 0 41 13t16 34v201q0 18 -16.5 31.5t-40.5 13.5h-619q-23 0 -40 -13.5t-17 -31.5v-201z" />
<glyph unicode="&#xae;" horiz-adv-x="1638" d="M-39 803q0 -354 252 -606q254 -250 608 -250q352 0 604 252q252 248 252 604q0 354 -252 606q-254 250 -608 250h2q-354 0 -606 -252q-252 -250 -252 -604zM188 803q0 256 187 446q180 185 446 185q258 0 445 -187q184 -188 184 -444t-186 -447q-182 -184 -447 -184 q-260 0 -444 186q-184 184 -185 445zM481 348h205v385h88l211 -385h201l-242 397q127 0 193 66q63 68 63 193q0 115 -86 188q-86 70 -301 70h-332v-914zM686 885v225h176q63 0 99 -25q35 -23 34 -86q0 -53 -30.5 -83.5t-112.5 -30.5h-166z" />
<glyph unicode="&#xaf;" horiz-adv-x="1333" d="M45 1200q0 -27 18 -43l89 -86q-72 -123 -72 -287q0 -162 72 -284l-89 -86q-18 -16 -17 -43t17 -43l148 -146q16 -16 40.5 -17t43.5 17l86 86q119 -72 287 -71q164 0 286 73l88 -88q16 -16 41 -17t43 17l144 146q16 18 17 41.5t-17 42.5l-86 86q73 122 73 286 q0 82 -19 153t-54 134l86 86q18 18 18 43t-18 43l-144 143q-18 18 -41.5 17.5t-42.5 -17.5l-88 -86q-123 74 -286 74q-80 0 -152 -19.5t-133 -54.5l-90 89q-18 16 -43 16q-23 0 -41 -19l-146 -143q-18 -16 -18 -43zM440 784q0 94 68 162q70 66 160 66q96 0 161 -66 q66 -70 66 -162q0 -94 -66 -159q-68 -68 -161 -68q-92 0 -160 68q-68 63 -68 159z" />
<glyph unicode="&#xb0;" horiz-adv-x="735" d="M45 1350q0 -131 96 -228q94 -94 228 -94q131 0 225 94q96 94 96 228q0 129 -98 227q-94 94 -223 94h-2q-133 0 -227.5 -94t-94.5 -227zM287 1350q0 33 22.5 56.5t57.5 23.5h2q35 0 56 -24t21 -56q0 -35 -23.5 -57.5t-55.5 -22.5q-35 0 -57.5 22.5t-22.5 57.5z" />
<glyph unicode="&#xb1;" horiz-adv-x="1269" d="M45 340l2 -279q0 -27 18.5 -44t43.5 -17h1056q25 0 42.5 17.5t17.5 43.5v279q0 25 -18.5 42t-43.5 17h-327v9v151h329q25 0 42.5 18.5t17.5 43.5v278q0 27 -18.5 44.5t-43.5 17.5h-327v151q0 27 -17.5 44.5t-42.5 17.5h-280q-25 0 -42.5 -17.5t-17.5 -44.5v-151h-330 q-25 0 -43 -17.5t-18 -44.5v-278q0 -25 19.5 -43.5t44.5 -18.5h329v-151v-9h-332q-25 0 -43 -17t-18 -42z" />
<glyph unicode="&#xb2;" horiz-adv-x="931" d="M45 631q0 -25 17.5 -42.5t39.5 -17.5h727q23 0 40.5 17.5t17.5 42.5v186q0 25 -17.5 42.5t-40.5 17.5h-202l12 10q31 25 65.5 61.5t75.5 83.5q100 111 101 234q0 135 -104.5 210.5t-282.5 75.5q-63 0 -123 -11t-119 -34q-117 -45 -156 -80q-4 -6 -11 -20t-7 -23v-217 q0 -23 11 -37t26.5 -20t34 -1t30.5 21q14 16 39 37t64 43q78 45 141 45q78 0 78 -55q0 -25 -26.5 -55.5t-57.5 -57.5h2l-354 -303q-6 -4 -13.5 -19t-7.5 -26v-108z" />
<glyph unicode="&#xb3;" horiz-adv-x="948" d="M45 714q4 -22 21 -34q14 -14 51 -31.5t98 -44.5q57 -25 122.5 -36t135.5 -11q209 0 318.5 80t109.5 246q0 106 -57.5 176.5t-165.5 101.5l145 127q6 6 13.5 21.5t7.5 23.5v144q0 23 -18.5 41t-43.5 18h-635q-25 0 -42 -18.5t-17 -40.5l2 -179q0 -23 17.5 -41t42.5 -18 h225l-60 -55q-6 -4 -13 -19.5t-7 -23.5v-131q0 -25 17.5 -42.5t41.5 -17.5q66 -2 108 -7t58 -17q20 -16 21 -33q0 -16 -19.5 -23.5t-50.5 -7.5q-92 0 -162 31h4q-43 18 -67.5 30.5t-40.5 20.5q-23 12 -46.5 5t-35.5 -31l-76 -166q-6 -16 -2 -38z" />
<glyph unicode="&#xb4;" horiz-adv-x="839" d="M52.5 1107.5q15.5 -26.5 51.5 -26.5h252q8 0 23.5 6.5t21.5 12.5l377 397q27 29 11.5 58.5t-54.5 29.5h-373q-12 0 -27.5 -7t-21.5 -17l-258 -398q-18 -29 -2.5 -55.5z" />
<glyph unicode="&#xb5;" horiz-adv-x="1306" d="M45 -217q0 -27 19.5 -45.5t44.5 -18.5h350q25 0 43 18.5t18 45.5v197q90 10 170 38.5t156 81.5l31 -65q4 -14 21 -24.5t34 -10.5h270q25 0 42.5 18.5t17.5 42.5v1078q0 27 -18.5 44t-43.5 17h-350q-25 0 -43.5 -17.5t-18.5 -43.5v-717q-43 -20 -94 -41h4 q-68 -25 -102 -25q-78 0 -78 140v643q0 27 -18.5 44t-42.5 17h-351q-25 0 -43 -17.5t-18 -43.5v-1356z" />
<glyph unicode="&#xb6;" horiz-adv-x="1224" d="M45 1137q0 -252 99.5 -371t322.5 -131v-780q0 -27 17.5 -44.5t41.5 -17.5h207q27 0 44.5 17.5t17.5 44.5v1472h59v-1472q0 -27 17.5 -44.5t41.5 -17.5h207q25 0 42.5 17.5t17.5 44.5v1704q0 27 -18.5 45t-43.5 18h-594q-207 0 -344 -137q-66 -66 -100.5 -153t-34.5 -195z " />
<glyph unicode="&#xb7;" horiz-adv-x="440" d="M45 442q0 -23 15.5 -37t35.5 -14h250q20 0 34.5 14.5t14.5 36.5v299q0 23 -15 37.5t-36 14.5h-248q-23 0 -37 -14.5t-14 -37.5v-299z" />
<glyph unicode="&#xb8;" horiz-adv-x="903" d="M46 -754.5q3 -19.5 13 -29.5q16 -16 53.5 -31.5t94.5 -32.5q55 -16 110.5 -24.5t108.5 -8.5q178 0 299 95q131 98 131 245q0 123 -94 207q-86 78 -211 78l61 90q20 31 5 60.5t-54 29.5h-157q-10 0 -27 -7t-23 -17l-182 -279q-10 -16 -8 -36.5t16 -35.5l62 -61 q10 -10 27.5 -15t29.5 -1q47 14 67.5 19t51.5 5q25 0 42 -12t17 -29q0 -31 -24.5 -49t-65.5 -18q-84 0 -135 18l-86 29q-23 4 -42.5 -5.5t-27.5 -29.5l-51 -123q-4 -12 -1 -31.5z" />
<glyph unicode="&#xb9;" horiz-adv-x="612" d="M45 1176q0 -31 21.5 -48.5t50.5 -9.5q33 10 63.5 20.5t59.5 24.5v-534q0 -25 15 -42.5t38 -17.5h221q23 0 38 17.5t15 42.5v844q0 25 -16 42t-39 17h-195q-29 -29 -52 -48.5t-44 -29.5l6 2q-49 -20 -137 -39q-18 -4 -31.5 -20.5t-13.5 -36.5v-184z" />
<glyph unicode="&#xba;" horiz-adv-x="937" d="M45 1122q0 -174 112.5 -271t311.5 -97t311.5 97t112.5 271t-112.5 272.5t-311.5 98.5t-311.5 -98.5t-112.5 -272.5zM354 1122q0 53 31 84t84 31t84 -31t31 -84t-31 -83.5t-84 -30.5t-84 30.5t-31 83.5z" />
<glyph unicode="&#xbb;" horiz-adv-x="1394" d="M57.5 112.5q14.5 -32.5 53.5 -32.5h262q10 0 25.5 7t19.5 13l340 441q10 16 10 39t-10 36l-340 441q-4 8 -19.5 15t-25.5 7h-262q-39 0 -53.5 -33.5t10.5 -64.5l315 -401l-315 -404q-25 -31 -10.5 -63.5zM642.5 112.5q14.5 -32.5 53.5 -32.5h262q10 0 25.5 7t20.5 13 l339 441q10 16 11 39q0 23 -11 36l-339 441q-4 8 -19.5 15t-26.5 7h-262q-39 0 -53 -33.5t10 -64.5l316 -401l-316 -404q-25 -31 -10.5 -63.5z" />
<glyph unicode="&#xbc;" horiz-adv-x="2324" d="M45 1241q0 -35 24.5 -52.5t57.5 -8.5q39 10 75 21t70 26v-563q0 -27 19.5 -45.5t46.5 -18.5h262q27 0 45.5 18.5t18.5 45.5v888q0 27 -18.5 45.5t-45.5 18.5h-231q-35 -33 -64 -52.5t-51 -29.5l4 2q-63 -23 -160 -41q-23 -4 -38 -21.5t-15 -39.5v-193zM278.5 11 q16.5 -36 61.5 -36h278q10 0 27 7.5t23 13.5l1347 1536q29 33 12.5 68.5t-61.5 35.5h-278q-10 0 -26.5 -7t-23.5 -13l-1347 -1536q-29 -33 -12.5 -69zM1278 211q0 -27 18.5 -45.5t44.5 -18.5h404v-84q0 -27 18.5 -45t44.5 -18h267q27 0 45 18.5t18 44.5v84l78 3q27 0 45 18 t18 45v182q0 27 -18 45.5t-45 18.5h-78v493q0 27 -18.5 45.5t-44.5 18.5h-258q-10 0 -26.5 -7.5t-23.5 -15.5l-489 -547v-235zM1614 459l131 145v-145h-131z" />
<glyph unicode="&#xbd;" horiz-adv-x="2306" d="M45 1241q0 -35 24.5 -52.5t57.5 -8.5q39 10 75 21t70 26v-563q0 -27 19.5 -45.5t44.5 -18.5h264q27 0 45.5 18.5t18.5 45.5v888q0 27 -18.5 45.5t-45.5 18.5h-231q-35 -33 -64 -52.5t-51 -29.5l4 2q-29 -10 -68.5 -21.5t-91.5 -19.5q-23 -4 -38 -21.5t-15 -39.5v-193z M237.5 11q16.5 -36 61.5 -36h279q10 0 26.5 7.5t22.5 13.5l749 854v-221q0 -23 12.5 -39.5t30 -22.5t37 -1t33.5 24q29 35 110.5 82t155.5 47q41 0 63.5 -14.5t22.5 -40.5q0 -27 -29.5 -60t-64.5 -61h2l-385 -318q-8 -6 -15.5 -22.5t-7.5 -24.5v-115q0 -27 18.5 -45 t45.5 -18h793q27 0 45 18.5t18 44.5v197q0 25 -18.5 43.5t-44.5 18.5h-220l13 12q29 29 68.5 65.5t86.5 85.5q53 57 80 118t27 128q0 141 -115 221t-307 80q-135 0 -264 -47q-35 -12 -64.5 -24.5t-52.5 -22.5l524 594q14 16 16.5 34.5t-5 34t-23.5 25.5t-37 10h-278 q-10 0 -26.5 -7t-23.5 -13l-1347 -1536q-29 -33 -12.5 -69z" />
<glyph unicode="&#xbe;" horiz-adv-x="2400" d="M45 752q6 -23 23 -35q27 -27 161 -80q127 -51 285 -51q229 0 348 84t119 260q0 111 -62.5 184.5t-181.5 106.5l160 135q6 6 14.5 22.5t8.5 24.5v149q0 27 -20.5 45.5t-47.5 18.5h-696q-27 0 -45.5 -18.5t-18.5 -45.5v-184q0 -27 19.5 -45t46.5 -18h248l-66 -60 q-6 -4 -13.5 -19.5t-7.5 -25.5v-137q0 -27 18.5 -45.5t45.5 -18.5q72 -2 118 -7t64 -19q23 -12 23 -33q0 -16 -20.5 -24.5t-55.5 -8.5q-51 0 -94 8.5t-84 24.5h4q-47 20 -73.5 32.5t-43.5 20.5q-27 14 -52.5 6t-37.5 -32l-84 -174q-8 -18 -2 -41zM387 45.5q-2 -18.5 5 -34 t22.5 -26t38.5 -10.5h280q10 0 26.5 7.5t22.5 13.5l1350 1536q27 33 10.5 68.5t-61.5 35.5h-281q-8 0 -24.5 -7t-22.5 -13l-1350 -1536q-14 -16 -16 -34.5zM1346 211q0 -27 20 -45.5t47 -18.5h404v-84q0 -27 18 -45t45 -18h266q27 0 46.5 18.5t19.5 44.5v84l76 3q25 0 45 18 t20 45v182q0 27 -20.5 45.5t-46.5 18.5h-76v493q0 27 -19.5 45.5t-46.5 18.5h-256q-10 0 -26.5 -7.5t-24.5 -15.5l-491 -547v-235zM1683 459l134 145v-145h-134z" />
<glyph unicode="&#xbf;" horiz-adv-x="1193" d="M47 193q0 -178 152 -306q145 -127 401 -127q117 0 270 56h-4q82 25 143.5 50t108.5 48q20 10 28.5 32.5t0.5 45.5l-76 231q-10 29 -36.5 39t-53.5 -6q-37 -25 -82 -49.5t-104 -46.5q-106 -41 -181 -41q-47 0 -78.5 35.5t-31.5 81.5q0 47 49 90v-2q35 29 68.5 56.5 t66.5 51.5q88 72 129 140.5t41 146.5v76q0 25 -18.5 43t-44.5 18h-283q-25 0 -42 -18.5t-17 -42.5l-4 -41q-2 -18 -8.5 -36t-23 -36t-44 -41t-70.5 -53q-45 -29 -89 -65t-83 -81q-84 -100 -84 -249zM299 586l4 2l2 2zM438 989q0 -27 18.5 -45t43.5 -18h311q25 0 42 18.5 t17 44.5v320q0 27 -18 45t-43 18h-311q-25 0 -42.5 -18.5t-17.5 -44.5v-320z" />
<glyph unicode="&#xc0;" horiz-adv-x="2217" d="M54.5 28.5q17.5 -28.5 58.5 -28.5h424q16 0 32.5 10t24.5 25l104 201h768l105 -201q8 -14 24.5 -24.5t30.5 -10.5h479q41 0 58.5 27.5t-0.5 62.5l-793 1481q-8 14 -24.5 24.5t-30.5 10.5h-363q-12 0 -29.5 -10.5t-25.5 -22.5l-842 -1481q-18 -35 -0.5 -63.5zM642 2118.5 q-15 -29.5 11 -58.5l383 -397q6 -4 20.5 -11t24.5 -7h254q37 0 53.5 26.5t-4.5 54.5l-264 398q-6 8 -21.5 16t-27.5 8h-375q-39 0 -54 -29.5zM899 596l197 356l184 -356h-381z" />
<glyph unicode="&#xc1;" horiz-adv-x="2217" d="M54.5 28.5q17.5 -28.5 58.5 -28.5h424q16 0 32.5 10t24.5 25l104 201h768l105 -201q8 -14 24.5 -24.5t30.5 -10.5h479q41 0 58.5 27.5t-0.5 62.5l-793 1481q-8 14 -24.5 24.5t-30.5 10.5h-363q-12 0 -29.5 -10.5t-25.5 -22.5l-842 -1481q-18 -35 -0.5 -63.5zM828.5 1671 q15.5 -26 52.5 -26h252q8 0 23 6t22 12l376 397q27 29 11.5 58.5t-54.5 29.5h-372q-12 0 -27.5 -7t-21.5 -17l-259 -398q-18 -29 -2.5 -55zM899 596l197 356l184 -356h-381z" />
<glyph unicode="&#xc2;" horiz-adv-x="2217" d="M54.5 28.5q17.5 -28.5 58.5 -28.5h424q16 0 32.5 10t24.5 25l104 201h768l105 -201q8 -14 24.5 -24.5t30.5 -10.5h479q41 0 58.5 27.5t-0.5 62.5l-793 1481q-8 14 -24.5 24.5t-30.5 10.5h-363q-12 0 -29.5 -10.5t-25.5 -22.5l-842 -1481q-18 -35 -0.5 -63.5zM604.5 1671 q16.5 -26 54.5 -26h267q10 0 27.5 7t21.5 15l151 182l148 -182q6 -6 22.5 -14t26.5 -8h268q39 0 55.5 26.5t-4.5 54.5l-274 398q-4 8 -20.5 16t-28.5 8h-385q-12 0 -28.5 -8t-22.5 -16l-275 -398q-20 -29 -3.5 -55zM899 596l197 356l184 -356h-381z" />
<glyph unicode="&#xc3;" horiz-adv-x="2217" d="M54.5 28.5q17.5 -28.5 58.5 -28.5h424q16 0 32.5 10t24.5 25l104 201h768l105 -201q8 -14 24.5 -24.5t30.5 -10.5h479q41 0 58.5 27.5t-0.5 62.5l-793 1481q-8 14 -24.5 24.5t-30.5 10.5h-363q-12 0 -29.5 -10.5t-25.5 -22.5l-842 -1481q-18 -35 -0.5 -63.5zM571 1690 q-4 -25 14.5 -42.5t47.5 -17.5h188q20 0 36.5 12.5t21.5 30.5q16 70 61 70q72 0 162 -45q117 -55 223 -56q137 0 238.5 86.5t136.5 280.5l-60 59h-192q-20 0 -36.5 -12t-20.5 -28q-12 -70 -60 -70q-78 0 -164 43q-117 55 -221 55q-139 0 -239.5 -85t-135.5 -281zM899 596 l197 356l184 -356h-381z" />
<glyph unicode="&#xc4;" horiz-adv-x="2217" d="M54.5 28.5q17.5 -28.5 58.5 -28.5h424q16 0 32.5 10t24.5 25l104 201h768l105 -201q8 -14 24.5 -24.5t30.5 -10.5h479q41 0 58.5 27.5t-0.5 62.5l-793 1481q-8 14 -24.5 24.5t-30.5 10.5h-363q-12 0 -29.5 -10.5t-25.5 -22.5l-842 -1481q-18 -35 -0.5 -63.5zM635 1688 q0 -20 17.5 -35t41.5 -15h322q25 0 42 14.5t17 35.5v262q0 20 -17.5 34.5t-41.5 14.5h-322q-25 0 -42 -14.5t-17 -34.5v-262zM899 596l197 356l184 -356h-381zM1202 1679q0 -20 18.5 -34.5t41.5 -14.5h323q25 0 42.5 14.5t17.5 34.5v263q0 20 -17.5 34.5t-42.5 14.5h-323 q-23 0 -41.5 -14.5t-18.5 -34.5v-263z" />
<glyph unicode="&#xc5;" horiz-adv-x="2217" d="M54.5 28.5q17.5 -28.5 58.5 -28.5h424q16 0 32.5 10t24.5 25l104 201h768l105 -201q8 -14 24.5 -24.5t30.5 -10.5h479q41 0 58.5 27.5t-0.5 62.5l-793 1481q-8 14 -24.5 24.5t-30.5 10.5h-363q-12 0 -29.5 -10.5t-25.5 -22.5l-842 -1481q-18 -35 -0.5 -63.5zM766 2001 q0 -141 102 -248q102 -102 248 -102q139 0 246 102v-2q104 104 104 250q0 145 -104 248v-2q-105 104 -246 104q-143 0 -248 -104q-102 -102 -102 -246zM899 596l197 356l184 -356h-381zM1020 2001q0 41 27.5 68.5t68.5 27.5t68.5 -27.5t27.5 -68.5t-27.5 -68.5t-68.5 -27.5 t-68.5 27.5t-27.5 68.5z" />
<glyph unicode="&#xc6;" horiz-adv-x="2840" d="M53 31.5q17 -31.5 60 -31.5h462q14 0 31 10t25 21l178 276h606v-246q0 -25 19.5 -43t46.5 -18h1251q27 0 45.5 18.5t18.5 42.5v299q0 27 -18.5 45.5t-45.5 18.5h-723v172l559 2q27 0 45.5 18.5t18.5 45.5v294q0 25 -18.5 43.5t-45.5 18.5h-559v164h664q27 0 46 18.5 t19 44.5v299q0 25 -19.5 43.5t-45.5 18.5h-1530q-12 0 -29.5 -9.5t-23.5 -19.5l-1010 -1450v2l-21 -31q-23 -35 -6 -66.5zM1069 702l340 523h6v-523h-346z" />
<glyph unicode="&#xc7;" horiz-adv-x="1783" d="M45 778q0 -197 67.5 -345t198.5 -253q209 -164 531 -196l-172 -260q-10 -16 -7 -37t15 -35l61 -62q10 -10 28.5 -15t29.5 -1q49 14 68.5 19.5t49.5 5.5q25 0 42.5 -12.5t17.5 -28.5q0 -31 -24.5 -49.5t-65.5 -18.5q-80 0 -135 18l-86 29q-23 4 -41.5 -5t-28.5 -30 l-51 -123q-4 -12 -1 -31.5t13 -29.5q35 -33 147 -63q111 -33 220 -33q178 0 299 94q131 98 131 246q0 125 -95 207q-84 78 -210 77l61 91q16 18 12 40q328 10 570 99q16 6 29.5 23.5t13.5 33.5l4 307q2 35 -24.5 53.5t-59.5 6.5q-49 -20 -111.5 -39t-140.5 -41h2 q-145 -37 -303 -37q-229 0 -361 111q-61 53 -95 127.5t-34 169.5q0 215 128 331.5t358 116.5q70 0 138.5 -10t138 -28.5t126.5 -36t105 -34.5q35 -12 61.5 7.5t22.5 56.5l-23 301q0 16 -13.5 32.5t-29.5 20.5q-111 37 -266.5 62.5t-354.5 25.5q-227 0 -405 -56t-301 -164.5 t-186.5 -268.5t-63.5 -369z" />
<glyph unicode="&#xc8;" horiz-adv-x="1462" d="M45 61q0 -25 18.5 -43t42.5 -18h1250q27 0 44 18.5t17 42.5v299q0 27 -17.5 45.5t-43.5 18.5h-744v172l588 2q25 0 43.5 18.5t18.5 45.5v294q0 25 -18.5 43.5t-43.5 18.5h-588v164h688q25 0 43.5 18.5t18.5 44.5v299q0 25 -18.5 43.5t-43.5 18.5h-1194q-25 0 -43 -18.5 t-18 -43.5v-1483zM238.5 2118.5q-15.5 -29.5 11.5 -58.5l383 -397q6 -4 20.5 -11t24.5 -7h254q37 0 53 26.5t-4 54.5l-264 398q-6 8 -21.5 16t-27.5 8h-375q-39 0 -54.5 -29.5z" />
<glyph unicode="&#xc9;" horiz-adv-x="1462" d="M45 61q0 -25 18.5 -43t42.5 -18h1250q27 0 44 18.5t17 42.5v299q0 27 -17.5 45.5t-43.5 18.5h-744v172l588 2q25 0 43.5 18.5t18.5 45.5v294q0 25 -18.5 43.5t-43.5 18.5h-588v164h688q25 0 43.5 18.5t18.5 44.5v299q0 25 -18.5 43.5t-43.5 18.5h-1194q-25 0 -43 -18.5 t-18 -43.5v-1483zM425 1712q15 -26 52 -26h252q8 0 23.5 6t21.5 12l377 397q27 29 11.5 58.5t-54.5 29.5h-373q-12 0 -27.5 -7t-21.5 -17l-258 -398q-18 -29 -3 -55z" />
<glyph unicode="&#xca;" horiz-adv-x="1462" d="M45 61q0 -25 18.5 -43t42.5 -18h1250q27 0 44 18.5t17 42.5v299q0 27 -17.5 45.5t-43.5 18.5h-744v172l588 2q25 0 43.5 18.5t18.5 45.5v294q0 25 -18.5 43.5t-43.5 18.5h-588v164h688q25 0 43.5 18.5t18.5 44.5v299q0 25 -18.5 43.5t-43.5 18.5h-1194q-25 0 -43 -18.5 t-18 -43.5v-1483zM201 1671q16 -26 55 -26h266q10 0 27.5 7t21.5 15l152 182l147 -182q6 -6 22.5 -14t27.5 -8h268q39 0 55.5 26.5t-4.5 54.5l-274 398q-6 8 -21.5 16t-28.5 8h-385q-12 0 -28.5 -8t-22.5 -16l-274 -398q-20 -29 -4 -55z" />
<glyph unicode="&#xcb;" horiz-adv-x="1462" d="M45 61q0 -25 18.5 -43t42.5 -18h1250q27 0 44 18.5t17 42.5v299q0 27 -17.5 45.5t-43.5 18.5h-744v172l588 2q25 0 43.5 18.5t18.5 45.5v294q0 25 -18.5 43.5t-43.5 18.5h-588v164h688q25 0 43.5 18.5t18.5 44.5v299q0 25 -18.5 43.5t-43.5 18.5h-1194q-25 0 -43 -18.5 t-18 -43.5v-1483zM203 1853q0 -20 17.5 -34.5t41.5 -14.5h322q25 0 42 14.5t17 34.5v263q0 20 -17.5 34.5t-41.5 14.5h-322q-25 0 -42 -14.5t-17 -34.5v-263zM799 1853q0 -20 18.5 -34.5t40.5 -14.5h324q25 0 42 14.5t17 34.5v263q0 20 -17.5 34.5t-41.5 14.5h-324 q-23 0 -41 -14.5t-18 -34.5v-263z" />
<glyph unicode="&#xcc;" horiz-adv-x="849" d="M50 2118.5q-15 -29.5 11 -58.5l383 -397q6 -4 20.5 -11t24.5 -7h254q37 0 53.5 26.5t-3.5 54.5l-265 398q-6 8 -21 16t-28 8h-375q-39 0 -54 -29.5zM217 61q0 -25 15.5 -43t37.5 -18h381q23 0 38.5 18.5t15.5 42.5v1483q0 25 -15.5 43.5t-38.5 18.5h-381q-23 0 -38 -18.5 t-15 -43.5v-1483z" />
<glyph unicode="&#xcd;" horiz-adv-x="851" d="M45 61q0 -25 15.5 -43t37.5 -18h381q23 0 38 18.5t15 42.5v1483q0 25 -15 43.5t-38 18.5h-381q-23 0 -38 -18.5t-15 -43.5v-1483zM65 1671q15 -26 52 -26h252q8 0 23.5 6t21.5 12l377 397q27 29 11 58.5t-54 29.5h-373q-12 0 -27.5 -7t-21.5 -17l-258 -398 q-18 -29 -3 -55z" />
<glyph unicode="&#xce;" horiz-adv-x="1148" d="M53.5 1671q16.5 -26 55.5 -26h266q10 0 27.5 7t21.5 15l151 182l148 -182q6 -6 22.5 -14t26.5 -8h268q39 0 55.5 26.5t-3.5 54.5l-275 398q-6 8 -21.5 16t-27.5 8h-385q-12 0 -29.5 -8t-21.5 -16l-275 -398q-20 -29 -3.5 -55zM319 61q0 -25 15.5 -43t38.5 -18h381 q23 0 38 18.5t15 42.5v1483q0 25 -15.5 43.5t-37.5 18.5h-381q-23 0 -38.5 -18.5t-15.5 -43.5v-1483z" />
<glyph unicode="&#xcf;" horiz-adv-x="1130" d="M45 1812q0 -20 18.5 -34.5t42.5 -14.5h322q25 0 42 14.5t17 34.5v263q0 20 -18 34.5t-43 14.5h-322q-25 0 -42 -14.5t-17 -34.5v-263zM289 61q0 -25 16.5 -43t38.5 -18h381q23 0 38 18.5t15 42.5v1483q0 25 -16.5 43.5t-38.5 18.5h-381q-23 0 -38 -18.5t-15 -43.5v-1483z M641 1812q0 -20 19.5 -34.5t41.5 -14.5h324q25 0 42 14.5t17 34.5v263q0 20 -18 34.5t-43 14.5h-322q-25 0 -43 -14.5t-18 -34.5v-263z" />
<glyph unicode="&#xd0;" horiz-adv-x="2097" d="M45 672q0 -25 19.5 -43.5t46.5 -18.5h143v-549q0 -25 18.5 -43t44.5 -18h910q362 0 593.5 225.5t231.5 577.5q0 356 -233 581v-2q-233 225 -602 224l-902 -7q-27 0 -45 -18t-18 -43v-506h-141q-29 0 -47.5 -18.5t-18.5 -44.5v-297zM836 487v123h342q27 0 45 18.5t18 43.5 v297q0 27 -19.5 45t-45.5 18h-340v86h366q141 0 215 -80t74 -237q0 -156 -79 -235t-228 -79h-348z" />
<glyph unicode="&#xd1;" horiz-adv-x="1767" d="M45 61q0 -25 19.5 -43t44.5 -18h399q27 0 45 18.5t18 42.5v742l578 -778q6 -10 23.5 -17.5t27.5 -7.5h459q27 0 45 18.5t18 42.5v1483q0 25 -19.5 43.5t-45.5 18.5h-400q-27 0 -45 -18.5t-18 -43.5v-753q-59 82 -116.5 160.5t-116.5 156.5h2q-90 117 -175.5 232.5 t-175.5 238.5q-4 10 -21.5 18.5t-29.5 8.5h-455q-25 0 -43 -18.5t-18 -43.5v-1483zM360 1690q-4 -25 15.5 -42.5t48.5 -17.5h188q20 0 37 12.5t21 30.5q12 70 61 70q37 0 77 -11.5t85 -33.5q113 -55 223 -56q137 0 238.5 86.5t136.5 280.5l-59 59h-195q-20 0 -36.5 -12 t-20.5 -28q-16 -70 -60 -70q-76 0 -164 43q-115 55 -221 55q-139 0 -239.5 -85t-135.5 -281z" />
<glyph unicode="&#xd2;" horiz-adv-x="2017" d="M45 805q0 -418 247 -624t718 -206q475 0 718.5 205t243.5 625t-244.5 625.5t-719.5 205.5t-719 -205.5t-244 -625.5zM543.5 2139q-15.5 -30 13.5 -58l383 -398q6 -4 20.5 -11t24.5 -7h252q39 0 54.5 26.5t-5.5 55.5l-264 397q-6 8 -21.5 16.5t-27.5 8.5h-375 q-39 0 -54.5 -30zM614 805q0 176 101.5 265t294.5 89t294 -89t101 -265h-2q0 -176 -101.5 -265t-293.5 -89q-193 0 -293.5 89t-100.5 265z" />
<glyph unicode="&#xd3;" horiz-adv-x="2017" d="M45 805q0 -418 247 -624t718 -206q475 0 718.5 205t243.5 625t-244.5 625.5t-719.5 205.5t-719 -205.5t-244 -625.5zM614 805q0 176 101.5 265t294.5 89t294 -89t101 -265h-2q0 -176 -101.5 -265t-293.5 -89q-193 0 -293.5 89t-100.5 265zM731.5 1691.5 q16.5 -26.5 52.5 -26.5h252q8 0 23.5 6t21.5 12l377 398q27 29 10.5 58.5t-55.5 29.5h-373q-12 0 -27.5 -7.5t-21.5 -17.5l-258 -397q-18 -29 -1.5 -55.5z" />
<glyph unicode="&#xd4;" horiz-adv-x="2017" d="M45 805q0 -418 247 -624t718 -206q475 0 718.5 205t243.5 625t-244.5 625.5t-719.5 205.5t-719 -205.5t-244 -625.5zM514 1699.5q16 -26.5 55 -26.5h267q10 0 27.5 7.5t21.5 15.5l151 182l148 -182q6 -6 22.5 -14.5t26.5 -8.5h268q39 0 55.5 26.5t-4.5 55.5l-274 397 q-6 8 -21.5 16.5t-27.5 8.5h-385q-12 0 -29.5 -8t-21.5 -17l-275 -397q-20 -29 -4 -55.5zM614 805q0 176 101.5 265t294.5 89t294 -89t101 -265h-2q0 -176 -101.5 -265t-293.5 -89q-193 0 -293.5 89t-100.5 265z" />
<glyph unicode="&#xd5;" horiz-adv-x="2017" d="M45 805q0 -418 247 -624t718 -206q475 0 718.5 205t243.5 625t-244.5 625.5t-719.5 205.5t-719 -205.5t-244 -625.5zM473 1690q-4 -25 15.5 -42.5t48.5 -17.5h188q20 0 36.5 12.5t20.5 30.5q12 70 62 70q37 0 77 -11.5t85 -33.5q113 -55 223 -56q137 0 238.5 86.5 t136.5 280.5l-60 59h-194q-20 0 -37 -12t-21 -28q-16 -70 -59 -70q-76 0 -164 43q-115 55 -221 55q-139 0 -239.5 -85t-135.5 -281zM614 805q0 176 101.5 265t294.5 89t294 -89t101 -265h-2q0 -176 -101.5 -265t-293.5 -89q-193 0 -293.5 89t-100.5 265z" />
<glyph unicode="&#xd6;" horiz-adv-x="2017" d="M45 805q0 -418 247 -624t718 -206q475 0 718.5 205t243.5 625t-244.5 625.5t-719.5 205.5t-719 -205.5t-244 -625.5zM508 1731q0 -20 18.5 -35t42.5 -15h322q25 0 42 14.5t17 35.5v262q0 20 -18.5 34.5t-42.5 14.5h-322q-25 0 -42 -14.5t-17 -34.5v-262zM614 805 q0 176 101.5 265t294.5 89t294 -89t101 -265h-2q0 -176 -101.5 -265t-293.5 -89q-193 0 -293.5 89t-100.5 265zM1104 1731q0 -20 19.5 -35t41.5 -15h324q25 0 42 14.5t17 35.5v262q0 20 -18.5 34.5t-42.5 14.5h-324q-23 0 -41 -14.5t-18 -34.5v-262z" />
<glyph unicode="&#xd7;" horiz-adv-x="1261" d="M46 258q1 -25 17 -41l197 -197q18 -18 41 -18q25 0 43 18l287 287l287 -287q18 -18 40 -18q25 0 43 18l197 197q18 18 19 41q0 25 -19 43l-287 287l287 286q18 18 19 41q0 25 -19 43l-197 197q-18 18 -43 19q-23 0 -40 -19l-287 -287l-287 287q-18 18 -43 19 q-23 0 -41 -19l-197 -197q-18 -18 -17 -42.5t17 -41.5l287 -286l-287 -287q-18 -18 -17 -43z" />
<glyph unicode="&#xd8;" horiz-adv-x="2189" d="M50.5 -67.5q15.5 -36.5 60.5 -36.5h335q10 0 25.5 6t22.5 12l124 129q178 -68 482 -68q475 0 723 207t248 629q0 350 -179 551l232 240q14 14 17 33.5t-4 35t-22.5 26.5t-37.5 11h-336q-10 0 -25.5 -7t-21.5 -11l-111 -117q-182 74 -483 74q-479 0 -725 -207t-246 -629 q0 -356 178 -559l-241 -250q-31 -33 -15.5 -69.5zM700 811q0 176 101.5 266t298.5 90h43q23 0 43 -4l-471 -489q-10 29 -12.5 62.5t-2.5 74.5zM1018 455l467 487q6 -29 10 -60.5t4 -70.5q0 -178 -101.5 -268t-297.5 -90h-43t-39 2z" />
<glyph unicode="&#xd9;" horiz-adv-x="1751" d="M45 526q0 -317 219 -440q199 -111 608 -111q397 0 607 111q227 123 227 420v1040q0 25 -18.5 43.5t-42.5 18.5h-422q-27 0 -45.5 -18.5t-18.5 -43.5v-837q0 -141 -65.5 -204t-212.5 -63q-156 0 -222.5 59.5t-66.5 200.5v844q0 25 -18.5 43.5t-45.5 18.5h-419 q-27 0 -45.5 -18.5t-18.5 -43.5v-1020zM418.5 2118.5q-15.5 -29.5 11.5 -58.5l383 -397q6 -4 20.5 -11t24.5 -7h254q37 0 53.5 26.5t-4.5 54.5l-264 398q-6 8 -21.5 16t-27.5 8h-375q-39 0 -54.5 -29.5z" />
<glyph unicode="&#xda;" horiz-adv-x="1751" d="M45 526q0 -317 219 -440q199 -111 608 -111q397 0 607 111q227 123 227 420v1040q0 25 -18.5 43.5t-42.5 18.5h-422q-27 0 -45.5 -18.5t-18.5 -43.5v-837q0 -141 -65.5 -204t-212.5 -63q-156 0 -222.5 59.5t-66.5 200.5v844q0 25 -18.5 43.5t-45.5 18.5h-419 q-27 0 -45.5 -18.5t-18.5 -43.5v-1020zM605.5 1671q15.5 -26 51.5 -26h252q8 0 23.5 6t21.5 12l377 397q27 29 11.5 58.5t-54.5 29.5h-373q-12 0 -27.5 -7t-21.5 -17l-258 -398q-18 -29 -2.5 -55z" />
<glyph unicode="&#xdb;" horiz-adv-x="1751" d="M45 526q0 -317 219 -440q199 -111 608 -111q397 0 607 111q227 123 227 420v1040q0 25 -18.5 43.5t-42.5 18.5h-422q-27 0 -45.5 -18.5t-18.5 -43.5v-837q0 -141 -65.5 -204t-212.5 -63q-156 0 -222.5 59.5t-66.5 200.5v844q0 25 -18.5 43.5t-45.5 18.5h-419 q-27 0 -45.5 -18.5t-18.5 -43.5v-1020zM381 1671q16 -26 55 -26h266q10 0 28 7t22 15l151 182l148 -182q6 -6 22.5 -14t26.5 -8h268q39 0 55.5 26.5t-4.5 54.5l-274 398q-6 8 -21.5 16t-27.5 8h-385q-12 0 -28.5 -8t-23.5 -16l-274 -398q-20 -29 -4 -55z" />
<glyph unicode="&#xdc;" horiz-adv-x="1751" d="M45 526q0 -317 219 -440q199 -111 608 -111q397 0 607 111q227 123 227 420v1040q0 25 -18.5 43.5t-42.5 18.5h-422q-27 0 -45.5 -18.5t-18.5 -43.5v-837q0 -141 -65.5 -204t-212.5 -63q-156 0 -222.5 59.5t-66.5 200.5v844q0 25 -18.5 43.5t-45.5 18.5h-419 q-27 0 -45.5 -18.5t-18.5 -43.5v-1020zM383 1710q0 -20 17.5 -34.5t41.5 -14.5h322q25 0 42 14.5t17 34.5v262q0 20 -17.5 34.5t-41.5 14.5h-322q-25 0 -42 -14t-17 -35v-262zM979 1710q0 -20 18.5 -34.5t40.5 -14.5h324q25 0 42 14.5t17 34.5v262q0 20 -17.5 34.5 t-41.5 14.5h-324q-23 0 -41 -14t-18 -35v-262z" />
<glyph unicode="&#xdd;" horiz-adv-x="2136" d="M52.5 1571q-17.5 -35 10.5 -68l715 -860v-582q0 -25 18.5 -43t43.5 -18h458q27 0 45.5 18.5t18.5 42.5v582l713 860q27 33 9 68t-61 35h-485q-10 0 -28.5 -8.5t-22.5 -18.5l-379 -510l-416 514q-6 8 -22.5 15.5t-26.5 7.5h-530q-43 0 -60.5 -35zM846 1466.5 q16 -26.5 53 -26.5h252q8 0 23.5 6t21.5 12l377 397q27 29 11.5 59t-54.5 30h-373q-12 0 -27.5 -7.5t-21.5 -17.5l-258 -397q-20 -29 -4 -55.5z" />
<glyph unicode="&#xde;" horiz-adv-x="1540" d="M45 61q0 -25 18.5 -43t42.5 -18h447q25 0 43 18.5t18 42.5v234l209 -4q332 -6 502 123t170 401q0 274 -176 391t-535 117h-170v221q0 25 -18 43.5t-43 18.5h-447q-25 0 -43 -18.5t-18 -43.5v-1483zM614 662v286l113 8q109 8 168 -33.5t59 -117.5q0 -158 -241 -148z" />
<glyph unicode="&#xdf;" horiz-adv-x="1329" d="M45 61q0 -25 18.5 -43t45.5 -18h350q25 0 43 18.5t18 42.5v1092q0 61 27.5 81.5t66.5 20.5q41 0 77 -23.5t36 -70.5t-28.5 -78.5t-71.5 -31.5q-25 0 -43.5 -17.5t-18.5 -44.5v-213q0 -27 19.5 -45t44.5 -18q106 0 144 -52.5t38 -152.5q0 -86 -34 -133t-107 -47h-33 q-25 0 -43.5 -18.5t-18.5 -45.5v-227q0 -25 19.5 -43.5t44.5 -18.5h141q242 0 375 148q129 147 129 369q0 150 -69.5 255t-188.5 160q25 18 42 39t34 43q29 47 46 94t17 93q0 215 -147.5 323.5t-421.5 108.5q-242 0 -391 -111q-160 -121 -160 -367v-1069z" />
<glyph unicode="&#xe0;" d="M45 346q0 -170 111.5 -270.5t324.5 -100.5q109 0 213.5 31t196.5 78q10 -12 20.5 -22.5t26.5 -22.5q37 -33 82 -47.5t98 -14.5l217 181q18 14 22.5 32.5t-1.5 35t-21.5 27.5t-38.5 11q-4 0 -14 10q-14 10 -14 13v420q0 135 -35 230t-106.5 154.5t-182 87t-262.5 27.5 q-94 0 -179 -16t-161 -45q-78 -31 -126 -56.5t-71 -46.5q-12 -10 -16 -30.5t2 -36.5l78 -178q10 -25 34.5 -34t49.5 3q33 16 73 32.5t87 35.5q49 20 99 28t103 8q72 0 113 -30.5t43 -94.5l-172 9q-131 6 -236.5 -24t-187.5 -85q-170 -115 -170 -299zM231.5 1760.5 q-16.5 -29.5 12.5 -58.5l383 -397q6 -4 20.5 -11.5t24.5 -7.5h254q37 0 53 26.5t-4 55.5l-264 397q-6 8 -21.5 16.5t-27.5 8.5h-375q-39 0 -55.5 -29.5zM498 346q0 100 313 100h6v-96q-14 -6 -30.5 -13t-36.5 -15q-68 -27 -148 -27q-104 0 -104 51z" />
<glyph unicode="&#xe1;" d="M45 346q0 -170 111.5 -270.5t324.5 -100.5q109 0 213.5 31t196.5 78q10 -12 20.5 -22.5t26.5 -22.5q37 -33 82 -47.5t98 -14.5l217 181q18 14 22.5 32.5t-1.5 35t-21.5 27.5t-38.5 11q-4 0 -14 10q-14 10 -14 13v420q0 135 -35 230t-106.5 154.5t-182 87t-262.5 27.5 q-94 0 -179 -16t-161 -45q-78 -31 -126 -56.5t-71 -46.5q-12 -10 -16 -30.5t2 -36.5l78 -178q10 -25 34.5 -34t49.5 3q33 16 73 32.5t87 35.5q49 20 99 28t103 8q72 0 113 -30.5t43 -94.5l-172 9q-131 6 -236.5 -24t-187.5 -85q-170 -115 -170 -299zM439.5 1292.5 q15.5 -26.5 52.5 -26.5h251q8 0 23.5 6t21.5 12l377 397q27 29 11.5 58.5t-54.5 29.5h-372q-12 0 -27.5 -7t-22.5 -17l-258 -397q-18 -29 -2.5 -55.5zM498 346q0 100 313 100h6v-96q-14 -6 -30.5 -13t-36.5 -15q-68 -27 -148 -27q-104 0 -104 51z" />
<glyph unicode="&#xe2;" d="M45 346q0 -170 111.5 -270.5t324.5 -100.5q109 0 213.5 31t196.5 78q10 -12 20.5 -22.5t26.5 -22.5q37 -33 82 -47.5t98 -14.5l217 181q18 14 22.5 32.5t-1.5 35t-21.5 27.5t-38.5 11q-4 0 -14 10q-14 10 -14 13v420q0 135 -35 230t-106.5 154.5t-182 87t-262.5 27.5 q-94 0 -179 -16t-161 -45q-78 -31 -126 -56.5t-71 -46.5q-12 -10 -16 -30.5t2 -36.5l78 -178q10 -25 34.5 -34t49.5 3q33 16 73 32.5t87 35.5q49 20 99 28t103 8q72 0 113 -30.5t43 -94.5l-172 9q-131 6 -236.5 -24t-187.5 -85q-170 -115 -170 -299zM195 1271.5 q16 -26.5 55 -26.5h266q10 0 27.5 7.5t21.5 15.5l152 182l147 -182q6 -6 22.5 -14.5t26.5 -8.5h269q39 0 55 26.5t-4 55.5l-275 397q-6 8 -21 16.5t-28 8.5h-385q-12 0 -29.5 -8t-21.5 -17l-274 -397q-20 -29 -4 -55.5zM498 346q0 100 313 100h6v-96q-14 -6 -30.5 -13 t-36.5 -15q-68 -27 -148 -27q-104 0 -104 51z" />
<glyph unicode="&#xe3;" d="M45 346q0 -170 111.5 -270.5t324.5 -100.5q109 0 213.5 31t196.5 78q10 -12 20.5 -22.5t26.5 -22.5q37 -33 82 -47.5t98 -14.5l217 181q18 14 22.5 32.5t-1.5 35t-21.5 27.5t-38.5 11q-4 0 -14 10q-14 10 -14 13v420q0 135 -35 230t-106.5 154.5t-182 87t-262.5 27.5 q-94 0 -179 -16t-161 -45q-78 -31 -126 -56.5t-71 -46.5q-12 -10 -16 -30.5t2 -36.5l78 -178q10 -25 34.5 -34t49.5 3q33 16 73 32.5t87 35.5q49 20 99 28t103 8q72 0 113 -30.5t43 -94.5l-172 9q-131 6 -236.5 -24t-187.5 -85q-170 -115 -170 -299zM162 1331 q-4 -25 14.5 -42t46.5 -17h189q20 0 36.5 12t20.5 31q16 70 61 69q37 0 77 -11t85 -34q113 -55 223 -55q137 0 238.5 86t136.5 281l-59 59h-193q-20 0 -36.5 -12t-20.5 -29q-12 -70 -59 -70q-78 0 -164 43q-117 55 -221 56q-139 0 -239.5 -85t-135.5 -282zM498 346 q0 100 313 100h6v-96q-14 -6 -30.5 -13t-36.5 -15q-68 -27 -148 -27q-104 0 -104 51z" />
<glyph unicode="&#xe4;" d="M45 346q0 -170 111.5 -270.5t324.5 -100.5q109 0 213.5 31t196.5 78q10 -12 20.5 -22.5t26.5 -22.5q37 -33 82 -47.5t98 -14.5l217 181q18 14 22.5 32.5t-1.5 35t-21.5 27.5t-38.5 11q-4 0 -14 10q-14 10 -14 13v420q0 135 -35 230t-106.5 154.5t-182 87t-262.5 27.5 q-94 0 -179 -16t-161 -45q-78 -31 -126 -56.5t-71 -46.5q-12 -10 -16 -30.5t2 -36.5l78 -178q10 -25 34.5 -34t49.5 3q33 16 73 32.5t87 35.5q49 20 99 28t103 8q72 0 113 -30.5t43 -94.5l-172 9q-131 6 -236.5 -24t-187.5 -85q-170 -115 -170 -299zM197 1331 q0 -20 17 -34.5t42 -14.5h322q25 0 42 14.5t17 34.5v262q0 20 -17.5 34.5t-41.5 14.5h-322q-25 0 -42 -14t-17 -35v-262zM498 346q0 100 313 100h6v-96q-14 -6 -30.5 -13t-36.5 -15q-68 -27 -148 -27q-104 0 -104 51zM793 1331q0 -20 18 -34.5t41 -14.5h324q25 0 42 14.5 t17 34.5v262q0 20 -17.5 34.5t-41.5 14.5h-324q-23 0 -41 -14t-18 -35v-262z" />
<glyph unicode="&#xe5;" d="M45 346q0 -170 111.5 -270.5t324.5 -100.5q109 0 213.5 31t196.5 78q10 -12 20.5 -22.5t26.5 -22.5q37 -33 82 -47.5t98 -14.5l217 181q18 14 22.5 32.5t-1.5 35t-21.5 27.5t-38.5 11q-4 0 -14 10q-14 10 -14 13v420q0 135 -35 230t-106.5 154.5t-182 87t-262.5 27.5 q-94 0 -179 -16t-161 -45q-78 -31 -126 -56.5t-71 -46.5q-12 -10 -16 -30.5t2 -36.5l78 -178q10 -25 34.5 -34t49.5 3q33 16 73 32.5t87 35.5q49 20 99 28t103 8q72 0 113 -30.5t43 -94.5l-172 9q-131 6 -236.5 -24t-187.5 -85q-170 -115 -170 -299zM334 1581 q0 -145 102 -248q100 -102 248 -102q139 0 246 102v-2q104 104 104 250q0 145 -104 248v-2q-105 104 -246 104q-143 0 -248 -104q-102 -102 -102 -246zM498 346q0 100 313 100h6v-96q-14 -6 -30.5 -13t-36.5 -15q-68 -27 -148 -27q-104 0 -104 51zM588 1581q0 41 27.5 68.5 t68.5 27.5t68.5 -27.5t27.5 -68.5t-27.5 -68.5t-68.5 -27.5t-68.5 27.5t-27.5 68.5z" />
<glyph unicode="&#xe6;" horiz-adv-x="2299" d="M45 590q0 -141 34 -255t97.5 -194t156.5 -123t214 -43q61 0 113.5 11.5t99.5 38.5q61 35 143 100l41 -88q4 -14 22.5 -25.5t34.5 -11.5h218q27 0 45 18.5t18 42.5v27q86 -47 199.5 -80t259.5 -33q135 0 262 28t209 75q18 10 27.5 31.5t-1.5 42.5l-79 192q-10 23 -34 33 t-48 2q-12 -4 -39 -12.5t-62 -16.5q-80 -18 -168 -18q-168 0 -249 63q-10 8 -20.5 21.5t-20.5 29.5h667q25 0 44.5 18.5t19.5 41.5l4 92q2 68 -23.5 143.5t-57.5 141t-60 108.5l-27 43q-172 172 -443 172q-113 0 -201.5 -27.5t-158.5 -74.5v33q0 25 -18.5 43t-44.5 18h-295 q-27 0 -45.5 -18.5t-18.5 -42.5v-27q-68 41 -146.5 67.5t-176.5 26.5q-236 0 -369 -176q-123 -166 -123 -438zM516 565q0 143 42 220t132 77q23 0 58 -22q10 -8 21 -15.5t19 -13.5v-414q-8 -8 -18 -15t-22 -17h4q-4 -4 -11.5 -10.5t-17.5 -14.5l2 4q-41 -37 -82 -37 q-59 0 -93 71t-34 187zM1499 719q6 29 14.5 52.5t20.5 39.5q33 59 108 59q53 0 87 -41t47 -110h-277z" />
<glyph unicode="&#xe7;" horiz-adv-x="1116" d="M45 575q0 -274 166 -438q117 -111 268 -143l-164 -250q-10 -16 -7 -36.5t16 -35.5l61 -61q10 -10 27.5 -15.5t29.5 -1.5q47 14 67.5 19.5t51.5 5.5q25 0 42.5 -12.5t17.5 -28.5q0 -31 -25 -49t-66 -18q-80 0 -135 18l-86 29q-23 4 -41 -5.5t-28 -29.5l-52 -123 q-4 -12 -1 -31.5t14 -30.5q35 -33 147 -63q111 -33 219 -33q178 0 299 94q131 98 131 246q0 123 -94 207q-86 78 -211 78l62 90q10 12 12 27q49 6 96 18q106 29 135 45q8 4 19.5 19.5t11.5 25.5l37 275q4 29 -13.5 49t-45.5 20q-14 0 -22.5 -3t-18.5 -9h4q-12 -4 -34 -12.5 t-54 -20.5q-84 -33 -154 -33q-127 0 -186.5 53.5t-59.5 166.5q0 127 55.5 198.5t153.5 71.5q80 0 162 -33q47 -18 78 -32.5t47 -26.5q35 -23 65.5 -3.5t26.5 60.5l-27 270q0 12 -12 28.5t-22 21.5q-53 25 -134 49t-208 24q-285 0 -453 -170q-84 -86 -126 -199.5t-42 -261.5z " />
<glyph unicode="&#xe8;" horiz-adv-x="1210" d="M45 610q0 -299 180.5 -467t481.5 -168q59 0 118.5 7.5t114.5 20.5t103.5 31.5t84.5 43.5l25 74l-76 192q-10 23 -33.5 33t-46.5 0q-6 -4 -27.5 -10.5t-58.5 -16.5q-68 -18 -141 -18q-150 0 -211 61q-20 18 -37 53h584q25 0 42 18.5t17 43.5v90q0 270 -147 436 q-154 172 -402 172t-409 -170q-162 -168 -162 -426zM138.5 1719.5q-15.5 -29.5 11.5 -58.5l382 -397q6 -4 20.5 -11.5t25.5 -7.5h253q37 0 53.5 26.5t-3.5 55.5l-265 397q-6 8 -21 16.5t-28 8.5h-374q-39 0 -54.5 -29.5zM504 719q8 57 28 96q27 55 82 55q41 0 68 -39.5 t35 -111.5h-213z" />
<glyph unicode="&#xe9;" horiz-adv-x="1210" d="M45 610q0 -299 180.5 -467t481.5 -168q59 0 118.5 7.5t114.5 20.5t103.5 31.5t84.5 43.5l25 74l-76 192q-10 23 -33.5 33t-46.5 0q-6 -4 -27.5 -10.5t-58.5 -16.5q-68 -18 -141 -18q-150 0 -211 61q-20 18 -37 53h584q25 0 42 18.5t17 43.5v90q0 270 -147 436 q-154 172 -402 172t-409 -170q-162 -168 -162 -426zM325 1251.5q15 -26.5 52 -26.5h252q8 0 23.5 6t21.5 12l377 397q27 29 11.5 59t-54.5 30h-373q-12 0 -27.5 -7.5t-21.5 -17.5l-258 -397q-18 -29 -3 -55.5zM504 719q8 57 28 96q27 55 82 55q41 0 68 -39.5t35 -111.5h-213 z" />
<glyph unicode="&#xea;" horiz-adv-x="1210" d="M45 610q0 -299 180.5 -467t481.5 -168q59 0 118.5 7.5t114.5 20.5t103.5 31.5t84.5 43.5l25 74l-76 192q-10 23 -33.5 33t-46.5 0q-6 -4 -27.5 -10.5t-58.5 -16.5q-68 -18 -141 -18q-150 0 -211 61q-20 18 -37 53h584q25 0 42 18.5t17 43.5v90q0 270 -147 436 q-154 172 -402 172t-409 -170q-162 -168 -162 -426zM100.5 1230.5q16.5 -26.5 55.5 -26.5h266q10 0 27.5 7.5t21.5 15.5l152 182l147 -182q6 -6 22.5 -14.5t26.5 -8.5h268q39 0 55.5 26.5t-3.5 55.5l-275 397q-6 8 -21.5 16.5t-27.5 8.5h-385q-12 0 -28.5 -8t-22.5 -17 l-275 -397q-20 -29 -3.5 -55.5zM504 719q8 57 28 96q27 55 82 55q41 0 68 -39.5t35 -111.5h-213z" />
<glyph unicode="&#xeb;" horiz-adv-x="1210" d="M45 610q0 -299 180.5 -467t481.5 -168q59 0 118.5 7.5t114.5 20.5t103.5 31.5t84.5 43.5l25 74l-76 192q-10 23 -33.5 33t-46.5 0q-6 -4 -27.5 -10.5t-58.5 -16.5q-68 -18 -141 -18q-150 0 -211 61q-20 18 -37 53h584q25 0 42 18.5t17 43.5v90q0 270 -147 436 q-154 172 -402 172t-409 -170q-162 -168 -162 -426zM102 1290q0 -20 17.5 -34.5t42.5 -14.5h321q25 0 42.5 14.5t17.5 34.5v262q0 20 -17.5 35t-42.5 15h-321q-25 0 -42.5 -14.5t-17.5 -35.5v-262zM504 719q8 57 28 96q27 55 82 55q41 0 68 -39.5t35 -111.5h-213zM698 1290 q0 -20 18.5 -34.5t41.5 -14.5h323q25 0 42.5 14.5t17.5 34.5v262q0 20 -17.5 35t-42.5 15h-323q-23 0 -41.5 -14.5t-18.5 -35.5v-262z" />
<glyph unicode="&#xec;" horiz-adv-x="849" d="M50 1699q-15 -30 11 -59l383 -397q6 -4 20.5 -11t24.5 -7h254q37 0 53.5 26.5t-3.5 55.5l-265 397q-6 8 -21 16.5t-28 8.5h-375q-39 0 -54 -30zM406 61q0 -27 14 -44t37 -17h288q20 0 35 17.5t15 43.5v1053q0 27 -14.5 44.5t-35.5 17.5h-288q-23 0 -37 -17.5t-14 -44.5 v-1053z" />
<glyph unicode="&#xed;" horiz-adv-x="847" d="M45 61q0 -27 14.5 -44t36.5 -17h289q20 0 34.5 17.5t14.5 43.5v1053q0 27 -14 44.5t-35 17.5h-289q-23 0 -37 -17.5t-14 -44.5v-1053zM60.5 1251.5q15.5 -26.5 52.5 -26.5h252q8 0 23 6t22 12l376 397q27 29 11.5 59t-54.5 30h-372q-12 0 -27.5 -7.5t-21.5 -17.5 l-259 -397q-18 -29 -2.5 -55.5z" />
<glyph unicode="&#xee;" horiz-adv-x="1148" d="M53.5 1210.5q16.5 -26.5 55.5 -26.5h266q10 0 27.5 7t21.5 15l151 183l148 -183q6 -6 22.5 -14t26.5 -8h268q39 0 55.5 26.5t-3.5 55.5l-275 397q-6 8 -21.5 16.5t-27.5 8.5h-385q-12 0 -29.5 -8.5t-21.5 -16.5l-275 -397q-20 -29 -3.5 -55.5zM385 61q0 -27 14.5 -44 t36.5 -17h289q20 0 34.5 17.5t14.5 43.5v1053q0 27 -14.5 44.5t-34.5 17.5h-289q-23 0 -37 -17.5t-14 -44.5v-1053z" />
<glyph unicode="&#xef;" horiz-adv-x="1130" d="M45 1290q0 -20 18.5 -34.5t42.5 -14.5h322q25 0 42 14.5t17 34.5v262q0 20 -18 35t-43 15h-322q-25 0 -42 -14.5t-17 -35.5v-262zM338 61q0 -27 15.5 -44t37.5 -17h289q20 0 34.5 17.5t14.5 43.5v1053q0 27 -15.5 44.5t-35.5 17.5h-289q-23 0 -37 -17.5t-14 -44.5v-1053z M641 1290q0 -20 19.5 -34.5t41.5 -14.5h324q25 0 42 14.5t17 34.5v262q0 20 -18 35t-43 15h-322q-27 0 -44 -14.5t-17 -35.5v-262z" />
<glyph unicode="&#xf0;" horiz-adv-x="1398" d="M45 547q0 -137 45 -243.5t129 -180.5t206 -112t275 -38q328 0 491 147t163 460q0 385 -271 665q-12 14 -27.5 27.5t-31.5 30.5l94 53q25 14 29 42.5t-17 51.5l-112 135q-14 16 -37 20.5t-41 -6.5l-174 -110q-66 41 -145.5 69.5t-171.5 51.5q-16 4 -36 -4.5t-30 -22.5 l-96 -153q-16 -25 -7 -52.5t37 -40.5q35 -16 66 -28.5t57 -26.5l-75 -47q-23 -16 -28 -44t15 -50l76 -90q-113 -35 -203 -111q-180 -156 -180 -393zM481 528q0 98 57.5 154.5t161.5 56.5h2q100 0 158 -55t58 -152q0 -98 -60.5 -154t-159.5 -56q-104 0 -160.5 53t-56.5 153z M668 1087l28 17q6 -4 10.5 -10.5t10.5 -10.5l-35 4h-14z" />
<glyph unicode="&#xf1;" horiz-adv-x="1306" d="M45 61q0 -27 18.5 -44t42.5 -17h351q25 0 43 17.5t18 43.5v703q12 8 28.5 15t39.5 18h-4q37 16 69.5 24t67.5 8t52 -36.5t17 -96.5v-635q0 -27 18.5 -44t43.5 -17h350q25 0 43.5 17.5t18.5 43.5v703q0 215 -100.5 327.5t-303.5 112.5q-113 0 -216 -34.5t-189 -96.5 l-47 78q-8 10 -24.5 18.5t-27.5 8.5h-250q-25 0 -42 -17.5t-17 -42.5v-1057zM123 1352q-4 -25 15.5 -42.5t47.5 -17.5h189q20 0 36.5 12.5t20.5 30.5q12 70 62 70q37 0 76.5 -11.5t84.5 -33.5q113 -55 224 -55q137 0 238.5 86t135.5 280l-59 60h-195q-20 0 -36.5 -12.5 t-20.5 -28.5q-16 -70 -59 -70q-76 0 -164 43q-115 55 -221 55q-139 0 -239.5 -85t-135.5 -281z" />
<glyph unicode="&#xf2;" horiz-adv-x="1394" d="M45 590q0 -285 178 -451q176 -164 473 -164q299 0 475 164q179 166 179 451q0 287 -179 452q-180 164 -475 164q-293 0 -473 -164q-178 -166 -178 -452zM226.5 1760.5q-15.5 -29.5 11.5 -58.5l383 -397q6 -4 20 -11.5t25 -7.5h254q37 0 53 26.5t-4 55.5l-264 397 q-6 8 -21.5 16.5t-28.5 8.5h-374q-39 0 -54.5 -29.5zM479 590q0 115 57.5 179.5t159.5 64.5q104 0 161.5 -64.5t57.5 -179.5t-57 -179.5t-162 -64.5q-102 0 -159.5 64.5t-57.5 179.5z" />
<glyph unicode="&#xf3;" horiz-adv-x="1394" d="M45 590q0 -285 178 -451q176 -164 473 -164q299 0 475 164q179 166 179 451q0 287 -179 452q-180 164 -475 164q-293 0 -473 -164q-178 -166 -178 -452zM413 1312.5q15 -26.5 52 -26.5h252q8 0 23.5 6t21.5 13l377 397q27 29 11.5 58.5t-54.5 29.5h-373q-12 0 -27.5 -7 t-21.5 -18l-258 -397q-18 -29 -3 -55.5zM479 590q0 115 57.5 179.5t159.5 64.5q104 0 161.5 -64.5t57.5 -179.5t-57 -179.5t-162 -64.5q-102 0 -159.5 64.5t-57.5 179.5z" />
<glyph unicode="&#xf4;" horiz-adv-x="1394" d="M45 590q0 -285 178 -451q176 -164 473 -164q299 0 475 164q179 166 179 451q0 287 -179 452q-180 164 -475 164q-293 0 -473 -164q-178 -166 -178 -452zM189 1312.5q16 -26.5 55 -26.5h266q10 0 27.5 7t21.5 16l152 182l147 -182q6 -6 22.5 -14.5t26.5 -8.5h269 q39 0 55 26.5t-4 55.5l-275 397q-6 8 -21.5 16.5t-27.5 8.5h-385q-12 0 -28.5 -8t-22.5 -17l-274 -397q-20 -29 -4 -55.5zM479 590q0 115 57.5 179.5t159.5 64.5q104 0 161.5 -64.5t57.5 -179.5t-57 -179.5t-162 -64.5q-102 0 -159.5 64.5t-57.5 179.5z" />
<glyph unicode="&#xf5;" horiz-adv-x="1394" d="M45 590q0 -285 178 -451q176 -164 473 -164q299 0 475 164q179 166 179 451q0 287 -179 452q-180 164 -475 164q-293 0 -473 -164q-178 -166 -178 -452zM156 1331q-4 -25 14 -42t47 -17h189q20 0 36.5 12t20.5 31q12 70 61 69q72 0 162 -45q117 -55 223 -55 q137 0 238.5 86t136.5 281l-59 59h-193q-20 0 -36.5 -12t-20.5 -29q-16 -70 -60 -70q-78 0 -163 43q-117 55 -222 56q-139 0 -239.5 -85t-134.5 -282zM479 590q0 115 57.5 179.5t159.5 64.5q104 0 161.5 -64.5t57.5 -179.5t-57 -179.5t-162 -64.5q-102 0 -159.5 64.5 t-57.5 179.5z" />
<glyph unicode="&#xf6;" horiz-adv-x="1394" d="M45 590q0 -285 178 -451q176 -164 473 -164q299 0 475 164q179 166 179 451q0 287 -179 452q-180 164 -475 164q-293 0 -473 -164q-178 -166 -178 -452zM190 1290q0 -20 17.5 -34.5t42.5 -14.5h321q25 0 42.5 14.5t17.5 34.5v262q0 20 -17.5 35t-42.5 15h-321 q-25 0 -42.5 -14.5t-17.5 -35.5v-262zM479 590q0 115 57.5 179.5t159.5 64.5q104 0 161.5 -64.5t57.5 -179.5t-57 -179.5t-162 -64.5q-102 0 -159.5 64.5t-57.5 179.5zM786 1290q0 -20 18.5 -34.5t41.5 -14.5h323q25 0 42.5 14.5t17.5 34.5v262q0 20 -17.5 35t-42.5 15h-323 q-23 0 -41.5 -14.5t-18.5 -35.5v-262z" />
<glyph unicode="&#xf7;" horiz-adv-x="1269" d="M45 471q0 -18 19.5 -32.5t44.5 -14.5h1056q25 0 42.5 14.5t17.5 32.5v221q0 20 -18.5 33.5t-43.5 13.5h-1057q-25 0 -43 -13t-18 -34v-221zM416 -57q0 -23 15 -37.5t36 -14.5h250q20 0 34.5 14.5t14.5 37.5v299q0 23 -15.5 37t-35.5 14h-248q-23 0 -37 -14.5t-14 -36.5 v-299zM416 930q0 -23 15 -37t36 -14h250q20 0 34.5 14t14.5 37v299q0 23 -15.5 37t-35.5 14h-248q-23 0 -37 -14.5t-14 -36.5v-299z" />
<glyph unicode="&#xf8;" horiz-adv-x="1619" d="M50.5 -67.5q15.5 -34.5 60.5 -34.5l237 2q10 0 25.5 7t21.5 13l99 109q119 -53 309 -54q303 0 481 164q182 166 182 457q0 223 -104 371l192 211q29 33 14.5 67.5t-59.5 34.5h-237q-10 0 -25.5 -7t-19.5 -13l-94 -103q-66 31 -148 47.5t-182 16.5q-303 0 -483.5 -166 t-180.5 -459q0 -238 117 -391l-190 -205q-31 -33 -15.5 -67.5zM580 555v41q0 117 59 182.5t164 65.5q10 0 19 -1t18 -1zM793 350l233 252v-6q0 -115 -58.5 -180.5t-164.5 -65.5h-10z" />
<glyph unicode="&#xf9;" horiz-adv-x="1306" d="M45 395q0 -205 100.5 -312.5t298.5 -107.5q117 0 212.5 33t187.5 92l33 -65q4 -14 21 -24.5t34 -10.5h270q25 0 42.5 17.5t17.5 43.5v1057q0 25 -18.5 42.5t-43.5 17.5h-350q-25 0 -43.5 -17.5t-18.5 -42.5v-704q-20 -10 -43.5 -19.5t-50.5 -21.5h4q-35 -12 -60.5 -17.5 t-41.5 -5.5q-78 0 -78 135v633q0 25 -18.5 42.5t-42.5 17.5h-351q-25 0 -43 -17.5t-18 -42.5v-723zM199.5 1760.5q-15.5 -29.5 13.5 -58.5l383 -397q6 -4 20.5 -11.5t24.5 -7.5h252q39 0 54.5 26.5t-5.5 55.5l-264 397q-6 8 -21.5 16.5t-27.5 8.5h-375q-39 0 -54.5 -29.5z " />
<glyph unicode="&#xfa;" horiz-adv-x="1306" d="M45 395q0 -205 100.5 -312.5t298.5 -107.5q117 0 212.5 33t187.5 92l33 -65q4 -14 21 -24.5t34 -10.5h270q25 0 42.5 17.5t17.5 43.5v1057q0 25 -18.5 42.5t-43.5 17.5h-350q-25 0 -43.5 -17.5t-18.5 -42.5v-704q-20 -10 -43.5 -19.5t-50.5 -21.5h4q-35 -12 -60.5 -17.5 t-41.5 -5.5q-78 0 -78 135v633q0 25 -18.5 42.5t-42.5 17.5h-351q-25 0 -43 -17.5t-18 -42.5v-723zM387 1312.5q16 -26.5 53 -26.5h252q8 0 23.5 6t21.5 13l377 397q27 29 10.5 58.5t-55.5 29.5h-373q-12 0 -27.5 -7t-21.5 -18l-258 -397q-18 -29 -2 -55.5z" />
<glyph unicode="&#xfb;" horiz-adv-x="1306" d="M45 395q0 -205 100.5 -312.5t298.5 -107.5q117 0 212.5 33t187.5 92l33 -65q4 -14 21 -24.5t34 -10.5h270q25 0 42.5 17.5t17.5 43.5v1057q0 25 -18.5 42.5t-43.5 17.5h-350q-25 0 -43.5 -17.5t-18.5 -42.5v-704q-20 -10 -43.5 -19.5t-50.5 -21.5h4q-35 -12 -60.5 -17.5 t-41.5 -5.5q-78 0 -78 135v633q0 25 -18.5 42.5t-42.5 17.5h-351q-25 0 -43 -17.5t-18 -42.5v-723zM163 1312.5q17 -26.5 56 -26.5h266q10 0 27.5 7t22.5 16l151 182l148 -182q6 -6 22 -14.5t27 -8.5h268q39 0 54.5 26.5t-5.5 55.5l-274 397q-4 8 -20.5 16.5t-28.5 8.5h-385 q-12 0 -29 -8t-23 -17l-274 -397q-20 -29 -3 -55.5z" />
<glyph unicode="&#xfc;" horiz-adv-x="1306" d="M45 395q0 -205 100.5 -312.5t298.5 -107.5q117 0 212.5 33t187.5 92l33 -65q4 -14 21 -24.5t34 -10.5h270q25 0 42.5 17.5t17.5 43.5v1057q0 25 -18.5 42.5t-43.5 17.5h-350q-25 0 -43.5 -17.5t-18.5 -42.5v-704q-20 -10 -43.5 -19.5t-50.5 -21.5h4q-35 -12 -60.5 -17.5 t-41.5 -5.5q-78 0 -78 135v633q0 25 -18.5 42.5t-42.5 17.5h-351q-25 0 -43 -17.5t-18 -42.5v-723zM143 1290q0 -20 18.5 -34.5t43.5 -14.5h321q25 0 42.5 14.5t17.5 34.5v262q0 20 -18.5 35t-43.5 15h-321q-25 0 -42.5 -14.5t-17.5 -35.5v-262zM739 1290q0 -20 19.5 -34.5 t42.5 -14.5h323q25 0 42.5 14.5t17.5 34.5v262q0 20 -18.5 35t-43.5 15h-323q-23 0 -41.5 -14.5t-18.5 -35.5v-262z" />
<glyph unicode="&#xfd;" horiz-adv-x="1480" d="M53.5 1170.5q-16.5 -27.5 1.5 -62.5l488 -938l-137 -313q-16 -33 2 -59.5t53 -26.5h336q16 0 33.5 11t23.5 25l576 1305q14 33 -2.5 59.5t-53.5 26.5h-332q-16 0 -33.5 -11t-23.5 -28l-199 -473l-217 475q-4 14 -21.5 25.5t-33.5 11.5h-405q-39 0 -55.5 -27.5z M533 1251.5q16 -26.5 53 -26.5h252q8 0 23.5 6t21.5 12l377 397q27 29 11 59t-54 30h-373q-12 0 -27.5 -7.5t-21.5 -17.5l-258 -397q-20 -29 -4 -55.5z" />
<glyph unicode="&#xfe;" d="M45 -172q0 -27 18.5 -45.5t42.5 -18.5h355q25 0 43 18.5t18 45.5v250q66 -53 139.5 -78t155.5 -25q238 0 393 193q78 96 114 212t36 257q0 272 -158 438v-2q-158 176 -405 176q-72 0 -141.5 -22.5t-133.5 -69.5v404q0 25 -18.5 43t-42.5 18h-355q-25 0 -43 -18.5 t-18 -42.5v-1733zM520 442v369q31 33 78.5 57.5t106.5 24.5q92 0 148 -78t56 -201q0 -139 -49 -224t-137 -85q-31 0 -60.5 12.5t-58.5 35t-49 45t-35 44.5z" />
<glyph unicode="&#xff;" horiz-adv-x="1480" d="M53.5 1170.5q-16.5 -27.5 1.5 -62.5l488 -938l-137 -313q-16 -33 2 -59.5t53 -26.5h336q16 0 33.5 11t23.5 25l576 1305q14 33 -2.5 59.5t-53.5 26.5h-332q-16 0 -33.5 -11t-23.5 -28l-199 -473l-217 475q-4 14 -21.5 25.5t-33.5 11.5h-405q-39 0 -55.5 -27.5zM229 1290 q0 -20 17.5 -34.5t42.5 -14.5h321q25 0 42.5 14.5t17.5 34.5v262q0 20 -17.5 35t-42.5 15h-321q-25 0 -42.5 -14.5t-17.5 -35.5v-262zM825 1290q0 -20 18.5 -34.5t41.5 -14.5h323q25 0 42.5 14.5t17.5 34.5v262q0 20 -17.5 35t-42.5 15h-323q-23 0 -41.5 -14.5t-18.5 -35.5 v-262z" />
<glyph unicode="&#x152;" horiz-adv-x="2766" d="M45 805q0 -377 236 -604q233 -225 624 -226q256 0 387 66v-2q29 16 57.5 32.5t55.5 37.5v-46q0 -27 18.5 -45t46.5 -18h1186q27 0 46.5 18.5t19.5 44.5v299q0 25 -19.5 43.5t-46.5 18.5h-659v174l495 2q27 0 46.5 18.5t19.5 45.5v294q0 27 -19.5 44.5t-46.5 17.5h-495 v166h602q27 0 45 18.5t18 42.5v301q0 25 -18 43.5t-45 18.5h-1129q-29 0 -47 -18.5t-18 -43.5v-49q-98 63 -223 100t-275 37q-389 0 -626 -225q-236 -227 -236 -606zM627 809q0 158 100 256q96 96 256 96q152 0 260 -92q104 -92 105 -248v-18q0 -170 -103 -260 q-106 -90 -266 -90q-162 0 -256 94q-96 96 -96 262z" />
<glyph unicode="&#x153;" horiz-adv-x="2205" d="M45 590q0 -283 186 -451q182 -164 500 -164q127 0 241.5 37t192.5 101q92 -74 211 -106t275 -32q63 0 129.5 7.5t128 20.5t115 31.5t94.5 43.5q18 10 27 31.5t-1 42.5l-78 192q-10 23 -35.5 33t-50.5 0q-8 -4 -31.5 -10.5t-64.5 -16.5q-78 -18 -166 -18q-172 0 -250 63 q-23 16 -38 51h659q25 0 43 17.5t20 40.5l7 92q10 135 -36 243.5t-130 194.5q-168 172 -441 172q-145 0 -237 -36.5t-158 -96.5q-63 51 -151 84l2 -2q-66 27 -135.5 39t-141.5 12q-313 0 -500 -164q-186 -168 -186 -452zM496 590q0 115 59 179.5t168 64.5t168 -64.5 t59 -179.5t-59.5 -179.5t-167.5 -64.5q-109 0 -168 64.5t-59 179.5zM1409 719q12 57 35 92q35 59 108 59q53 0 87 -39.5t44 -111.5h-274z" />
<glyph unicode="&#x178;" horiz-adv-x="2136" d="M52.5 1571q-17.5 -35 10.5 -68l715 -860v-582q0 -25 18.5 -43t43.5 -18h458q27 0 45.5 18.5t18.5 42.5v582l713 860q27 33 9 68t-61 35h-485q-10 0 -28.5 -8.5t-22.5 -18.5l-379 -510l-416 514q-6 8 -22.5 15.5t-26.5 7.5h-530q-43 0 -60.5 -35zM563 1710 q0 -20 17.5 -34.5t42.5 -14.5h321q25 0 42.5 14.5t17.5 34.5v262q0 20 -17.5 34.5t-42.5 14.5h-321q-25 0 -42.5 -14t-17.5 -35v-262zM1159 1710q0 -20 18.5 -34.5t41.5 -14.5h323q25 0 42.5 14.5t17.5 34.5v262q0 20 -17.5 34.5t-42.5 14.5h-323q-23 0 -41.5 -14t-18.5 -35 v-262z" />
<glyph unicode="&#x2c6;" horiz-adv-x="1148" d="M53.5 1312.5q16.5 -26.5 55.5 -26.5h266q10 0 27.5 7t21.5 16l151 182l148 -182q6 -6 22.5 -14.5t26.5 -8.5h268q39 0 55.5 26.5t-3.5 55.5l-275 397q-6 8 -21.5 16.5t-27.5 8.5h-385q-12 0 -28.5 -8t-22.5 -17l-275 -397q-20 -29 -3.5 -55.5z" />
<glyph unicode="&#x2dc;" horiz-adv-x="1220" d="M47 1331q-4 -25 14.5 -42t47.5 -17h188q20 0 36.5 12t20.5 31q12 70 62 69q72 0 162 -45q117 -55 223 -55q137 0 238.5 86t136.5 281l-60 59h-192q-20 0 -37 -12t-21 -29q-16 -70 -59 -70q-78 0 -164 43q-117 55 -221 56q-139 0 -239.5 -85t-135.5 -282z" />
<glyph unicode="&#x2000;" horiz-adv-x="1175" />
<glyph unicode="&#x2001;" horiz-adv-x="2351" />
<glyph unicode="&#x2002;" horiz-adv-x="1175" />
<glyph unicode="&#x2003;" horiz-adv-x="2351" />
<glyph unicode="&#x2004;" horiz-adv-x="783" />
<glyph unicode="&#x2005;" horiz-adv-x="587" />
<glyph unicode="&#x2006;" horiz-adv-x="391" />
<glyph unicode="&#x2007;" horiz-adv-x="391" />
<glyph unicode="&#x2008;" horiz-adv-x="293" />
<glyph unicode="&#x2009;" horiz-adv-x="470" />
<glyph unicode="&#x200a;" horiz-adv-x="130" />
<glyph unicode="&#x2010;" horiz-adv-x="823" d="M45 633q0 -20 17.5 -33.5t39.5 -13.5h619q25 0 41 13t16 34v201q0 18 -16.5 31.5t-40.5 13.5h-619q-23 0 -40 -13.5t-17 -31.5v-201z" />
<glyph unicode="&#x2011;" horiz-adv-x="823" d="M45 633q0 -20 17.5 -33.5t39.5 -13.5h619q25 0 41 13t16 34v201q0 18 -16.5 31.5t-40.5 13.5h-619q-23 0 -40 -13.5t-17 -31.5v-201z" />
<glyph unicode="&#x2012;" horiz-adv-x="823" d="M45 633q0 -20 17.5 -33.5t39.5 -13.5h619q25 0 41 13t16 34v201q0 18 -16.5 31.5t-40.5 13.5h-619q-23 0 -40 -13.5t-17 -31.5v-201z" />
<glyph unicode="&#x2013;" horiz-adv-x="1114" d="M45 500q0 -20 17.5 -33.5t41.5 -13.5h906q25 0 42 13t17 34v200q0 18 -17.5 31.5t-41.5 13.5h-906q-25 0 -42 -13t-17 -32v-200z" />
<glyph unicode="&#x2014;" horiz-adv-x="2138" d="M45 557q0 -20 18.5 -33.5t45.5 -13.5h1921q27 0 45 13.5t18 33.5v201q0 18 -18.5 31.5t-44.5 13.5h-1921q-27 0 -45.5 -13.5t-18.5 -31.5v-201z" />
<glyph unicode="&#x2018;" horiz-adv-x="438" d="M45 1049q0 -23 14.5 -39.5t34.5 -16.5h250q20 0 34.5 16.5t14.5 39.5v288q0 23 -14 39.5t-35 16.5h-55l63 178q10 29 -4 53.5t-43 24.5h-125q-14 0 -27.5 -11.5t-17.5 -25.5l-90 -264v-299z" />
<glyph unicode="&#x2019;" horiz-adv-x="438" d="M45 1303q0 -23 14.5 -39.5t34.5 -16.5h53l-61 -178q-10 -29 4 -52.5t43 -23.5h125q12 0 26.5 10.5t18.5 24.5l90 264v299q0 23 -14 40.5t-35 17.5h-250q-20 0 -34.5 -17.5t-14.5 -40.5v-288z" />
<glyph unicode="&#x201a;" horiz-adv-x="438" d="M45 -106q0 -23 14.5 -39.5t34.5 -16.5h53l-61 -178q-10 -29 4 -52.5t43 -23.5h125q12 0 26.5 10.5t18.5 24.5l90 264v299q0 23 -14 40.5t-35 17.5h-250q-20 0 -34.5 -17.5t-14.5 -40.5v-288z" />
<glyph unicode="&#x201c;" horiz-adv-x="892" d="M45 1049q0 -23 14.5 -39.5t34.5 -16.5h250q20 0 34.5 16.5t14.5 39.5v288q0 23 -14 39.5t-35 16.5h-55l63 178q10 29 -4 53.5t-43 24.5h-125q-14 0 -27.5 -11.5t-17.5 -25.5l-90 -264v-299zM496 1049q0 -23 14 -39.5t35 -16.5h250q20 0 34.5 16.5t14.5 39.5v288 q0 23 -14.5 39.5t-34.5 16.5h-56l64 178q10 29 -4.5 53.5t-42.5 24.5h-125q-14 0 -27.5 -11.5t-17.5 -25.5l-90 -264v-299z" />
<glyph unicode="&#x201d;" horiz-adv-x="892" d="M45 1303q0 -23 14.5 -39.5t34.5 -16.5h53l-61 -178q-10 -29 4 -52.5t43 -23.5h125q12 0 26.5 10.5t18.5 24.5l90 264v299q0 23 -14 40.5t-35 17.5h-250q-20 0 -34.5 -17.5t-14.5 -40.5v-288zM496 1303q0 -23 14 -39.5t35 -16.5h53l-61 -178q-10 -29 4 -52.5t43 -23.5h125 q12 0 26.5 10.5t18.5 24.5l90 264v299q0 23 -14.5 40.5t-34.5 17.5h-250q-20 0 -34.5 -17.5t-14.5 -40.5v-288z" />
<glyph unicode="&#x201e;" horiz-adv-x="878" d="M45 -106q0 -23 14.5 -39.5t34.5 -16.5h53l-61 -178q-10 -29 4 -52.5t43 -23.5h125q12 0 26.5 10.5t18.5 24.5l90 264v299q0 23 -14 40.5t-35 17.5h-250q-20 0 -34.5 -17.5t-14.5 -40.5v-288zM496 -106q0 -23 14 -39.5t35 -16.5h53l-61 -178q-10 -29 4 -52.5t43 -23.5h125 q12 0 26.5 10.5t18.5 24.5l90 264v299q0 23 -14.5 40.5t-34.5 17.5h-250q-20 0 -34.5 -17.5t-14.5 -40.5v-288z" />
<glyph unicode="&#x2022;" horiz-adv-x="899" d="M94 743q0 -145 105 -249q102 -104 252 -105q147 0 249 105q104 102 105 249q0 150 -107 252q-102 102 -247 103h-2q-76 0 -137.5 -24.5t-114.5 -80.5q-102 -102 -103 -250z" />
<glyph unicode="&#x2026;" horiz-adv-x="1810" d="M45 51q0 -23 15.5 -37t35.5 -14h250q20 0 34.5 14.5t14.5 36.5v299q0 23 -15 37t-36 14h-250q-20 0 -34.5 -14t-14.5 -37v-299zM729 51q0 -23 15.5 -37t35.5 -14h250q20 0 34.5 14.5t14.5 36.5v299q0 23 -15 37t-36 14h-248q-23 0 -37 -14t-14 -37v-299zM1415 51 q0 -23 15.5 -37t35.5 -14h250q20 0 34.5 14.5t14.5 36.5v299q0 23 -15 37t-36 14h-248q-23 0 -37 -14t-14 -37v-299z" />
<glyph unicode="&#x202f;" horiz-adv-x="470" />
<glyph unicode="&#x2039;" horiz-adv-x="815" d="M47 578q0 -20 10 -37l342 -441q6 -6 20.5 -13t24.5 -7h267q39 0 53 32.5t-10 63.5l-324 404l324 401q25 31 10.5 64.5t-53.5 33.5h-267q-10 0 -24 -7t-21 -15l-342 -441q-10 -16 -10 -38z" />
<glyph unicode="&#x203a;" horiz-adv-x="808" d="M57.5 112.5q14.5 -32.5 53.5 -32.5h262q10 0 25.5 7t19.5 13l340 441q10 16 10 39t-10 36l-340 441q-4 8 -19.5 15t-25.5 7h-262q-39 0 -53.5 -33.5t10.5 -64.5l315 -401l-315 -404q-25 -31 -10.5 -63.5z" />
<glyph unicode="&#x205f;" horiz-adv-x="587" />
<glyph unicode="&#x20ac;" horiz-adv-x="1994" d="M45 733q0 -23 23 -22h190q20 -338 266 -531q256 -205 709 -205q195 0 361.5 25t308.5 76q16 6 28.5 23.5t12.5 33.5l6 307q2 35 -26 53.5t-60 6.5q-49 -20 -111.5 -39t-140.5 -41h4q-147 -37 -305 -37q-229 0 -361 111q-98 86 -123 217h1022q23 0 23 22q0 23 -23 23 h-1026q-2 10 -2 16v19h2q0 78 19 145h1007q23 0 23 22q0 23 -23 23h-993q49 125 165 191.5t288 66.5q70 0 138.5 -10t137.5 -29q141 -37 232 -70q33 -12 59.5 7.5t21.5 56.5l-22 301q-2 16 -14.5 32.5t-28.5 20.5q-111 37 -266.5 62.5t-354.5 25.5q-399 0 -639.5 -166.5 t-298.5 -488.5h-206q-23 0 -23 -23t23 -22h198q-4 -37 -7 -77t-3 -81v-22h-188q-23 0 -23 -23z" />
<glyph unicode="&#x2122;" horiz-adv-x="1957" d="M45 1292q0 -25 19.5 -42t44.5 -17h155v-518q0 -23 18.5 -40.5t45.5 -17.5h213q27 0 45 17.5t18 40.5v518h154q29 0 47 17.5t18 41.5v150q0 25 -19.5 42t-45.5 17h-652q-25 0 -43 -17.5t-18 -41.5v-150zM844 715q0 -23 19.5 -40.5t45.5 -17.5h203q27 0 45.5 17.5 t18.5 40.5v157l67 -176q6 -16 24.5 -27.5t35.5 -11.5h157q16 0 34.5 11.5t25.5 27.5l53 150v-131q0 -23 18.5 -40.5t42.5 -17.5h215q27 0 45.5 17.5t18.5 40.5v727q0 25 -19.5 42t-46.5 17h-291q-16 0 -34.5 -12t-24.5 -27l-117 -293l-116 295q-4 14 -23.5 25.5t-36.5 11.5 h-297q-27 0 -45 -17.5t-18 -41.5v-727z" />
<glyph unicode="&#xe000;" horiz-adv-x="1177" d="M0 0v1178h1178v-1178h-1178z" />
</font>
</defs>
</svg>
